#N canvas 364 198 1186 646 12;
#X obj 121 86 tgl 19 0 empty empty empty 0 -10 0 12 #fcfcfc #000000 #000000 0 1;
#X obj 121 110 metro 50;
#X obj 121 134 random 256;
#X obj 242 169 hradio 19 1 0 4 empty empty empty 0 -10 0 12 #fcfcfc #000000 #000000 0;
#X obj 121 228 list prepend;
#X obj 121 276 route 0 1 2 3;
#X obj 242 89 ctlin 1;
#X text 310 88 << put your MIDI CC here;
#X obj 242 113 / 32;
#X obj 242 137 i;
#X obj 121 370 byteBuffer 3;
#X listbox 121 394 20 0 0 0 - - - 0;
#X listbox 291 394 20 0 0 0 - - - 0;
#X obj 291 370 byteBuffer 4;
#X listbox 701 394 20 0 0 0 - - - 0;
#X listbox 871 394 20 0 0 0 - - - 0;
#X obj 291 417 unpack f f f f;
#X floatatom 291 461 5 0 0 0 - - - 0;
#X floatatom 341 461 5 0 0 0 - - - 0;
#X floatatom 391 461 5 0 0 0 - - - 0;
#X floatatom 441 461 5 0 0 0 - - - 0;
#X obj 701 370 byteBuffer 2;
#X obj 871 370 byteBuffer 5;
#X listbox 471 394 25 0 0 0 - - - 0;
#X obj 471 370 byteBuffer 6;
#X obj 701 330 t f f;
#X connect 0 0 1 0;
#X connect 1 0 2 0;
#X connect 2 0 4 0;
#X connect 3 0 4 1;
#X connect 4 0 5 0;
#X connect 5 0 10 0;
#X connect 5 1 13 0;
#X connect 5 2 24 0;
#X connect 5 3 25 0;
#X connect 6 0 8 0;
#X connect 8 0 9 0;
#X connect 9 0 3 0;
#X connect 10 0 11 0;
#X connect 12 0 16 0;
#X connect 13 0 12 0;
#X connect 16 0 17 0;
#X connect 16 1 18 0;
#X connect 16 2 19 0;
#X connect 16 3 20 0;
#X connect 21 0 14 0;
#X connect 22 0 15 0;
#X connect 24 0 23 0;
#X connect 25 0 21 0;
#X connect 25 1 22 0;
