#N canvas 882 242 502 487 12;
#X text 167 360 \$1: number of bytes to buffer before output;
#X obj 47 48 inlet;
#X msg 225 202 append \$1;
#X obj 47 366 list store;
#X obj 97 149 + 1;
#X obj 97 173 mod \$1;
#X obj 47 420 outlet;
#X obj 47 267 t b b;
#X obj 47 155 f 1;
#X obj 47 223 select 0;
#X obj 47 72 t b f;
#X obj 237 29 inlet;
#X obj 237 53 t b b b f;
#X msg 177 97 1;
#X text 167 400 note that this doesn't work for N = 1;
#X connect 1 0 10 0;
#X connect 2 0 3 0;
#X connect 3 0 6 0;
#X connect 4 0 5 0;
#X connect 5 0 8 1;
#X connect 7 0 3 1;
#X connect 7 1 3 0;
#X connect 8 0 4 0;
#X connect 8 0 9 0;
#X connect 9 0 7 0;
#X connect 10 0 8 0;
#X connect 10 1 2 0;
#X connect 11 0 12 0;
#X connect 12 0 13 0;
#X connect 12 1 3 1;
#X connect 12 2 3 0;
#X connect 12 3 5 1;
#X connect 13 0 8 1;
