#N canvas 471 84 517 276 12;
#X declare -path ./bop;
#X declare -path ./NIRbedtime;
#X obj 21 178 output~;
#N canvas 242 49 1028 594 main 1;
#X obj 152 502 outlet~;
#N canvas 690 149 423 522 serialguts 1;
#N canvas 632 60 748 544 bauds 1;
#X msg 315 330 baud 57600;
#X msg 353 368 baud 230400;
#X msg 334 349 baud 115200;
#X msg 296 311 baud 38400;
#X msg 277 292 baud 19200;
#X msg 258 273 baud 9600;
#X msg 239 254 baud 4800;
#X msg 220 235 baud 2400;
#X msg 201 216 baud 1800;
#X msg 182 197 baud 1200;
#X msg 163 178 baud 600;
#X msg 144 159 baud 300;
#X msg 125 140 baud 200;
#X msg 87 102 baud 134;
#X msg 68 83 baud 110;
#X msg 49 64 baud 75;
#X msg 30 45 baud 50;
#X msg 11 26 baud 0;
#X msg 106 121 baud 150;
#X text 60 25 0 deasserts control lines and resets the serial port;
#X msg 415 417 baud \$1;
#X msg 415 219 115200;
#X floatatom 378 130 7 1 115200 1 divisor - - 0;
#X obj 415 258 / 1;
#X obj 378 159 sel 0;
#X floatatom 415 318 7 0 0 0 - - - 0;
#X text 471 142 (1-115200);
#X obj 415 189 t b f;
#X text 376 112 On Windows some other baud rates might work:;
#X text 8 8 Standard baud rates for linux:;
#X obj 415 469 outlet;
#X obj 378 76 r baud;
#X obj 435 283 s baud-final;
#X connect 0 0 30 0;
#X connect 1 0 30 0;
#X connect 2 0 30 0;
#X connect 3 0 30 0;
#X connect 4 0 30 0;
#X connect 5 0 30 0;
#X connect 6 0 30 0;
#X connect 7 0 30 0;
#X connect 8 0 30 0;
#X connect 9 0 30 0;
#X connect 10 0 30 0;
#X connect 11 0 30 0;
#X connect 12 0 30 0;
#X connect 13 0 30 0;
#X connect 14 0 30 0;
#X connect 15 0 30 0;
#X connect 16 0 30 0;
#X connect 17 0 30 0;
#X connect 18 0 30 0;
#X connect 20 0 30 0;
#X connect 21 0 23 0;
#X connect 22 0 24 0;
#X connect 23 0 25 0;
#X connect 23 0 32 0;
#X connect 24 1 27 0;
#X connect 25 0 20 0;
#X connect 27 0 21 0;
#X connect 27 1 23 1;
#X connect 31 0 22 0;
#X restore 170 178 pd bauds;
#X obj 91 396 spigot;
#X obj 91 420 print;
#X obj 148 392 tgl 19 0 empty empty empty 0 -10 0 12 #fcfcfc #000000 #000000 0 1;
#X obj 26 454 outlet;
#X obj 26 41 r comport-data;
#X obj 26 66 select 0 1;
#N canvas 305 316 361 274 lookup-device-name 0;
#X listbox 149 64 20 0 0 0 - - - 0;
#X obj 59 38 route ports;
#X obj 59 99 list split 1;
#X obj 111 140 select /dev/ttyUSB1;
#X obj 59 194 spigot;
#X msg 111 165 1;
#X msg 161 165 0;
#X msg 59 219 open \$1;
#X connect 1 0 0 0;
#X connect 1 0 2 0;
#X connect 2 0 4 0;
#X connect 2 1 3 0;
#X connect 3 0 5 0;
#X connect 3 1 6 0;
#X connect 4 0 7 0;
#X connect 5 0 4 1;
#X connect 6 0 4 1;
#X restore 198 451 pd lookup-device-name;
#X obj 156 267 route open baud;
#X floatatom 240 302 18 0 0 0 - - - 0;
#N canvas 0 101 450 300 set-color 0;
#X obj 37 37 inlet;
#X msg 37 212 \; comport-data-set color 13 12 12 \;;
#X obj 37 62 select 0 1;
#X msg 87 102 \; comport-data-set color 16 12 12 \;;
#X obj 59 177 loadbang;
#X connect 0 0 2 0;
#X connect 2 0 1 0;
#X connect 2 1 3 0;
#X connect 4 0 1 0;
#X restore 156 332 pd set-color;
#X msg 26 133 close \, info;
#X obj 26 267 comport;
#X msg 116 133 devicename /dev/ttyUSB0 \, info;
#X connect 0 0 12 0;
#X connect 1 0 2 0;
#X connect 3 0 1 1;
#X connect 5 0 6 0;
#X connect 6 0 11 0;
#X connect 6 1 13 0;
#X connect 8 0 10 0;
#X connect 8 1 9 0;
#X connect 11 0 12 0;
#X connect 12 0 4 0;
#X connect 12 0 1 0;
#X connect 12 1 8 0;
#X connect 13 0 12 0;
#X restore 13 32 pd serialguts;
#X listbox 116 263 20 0 0 0 - - - 0;
#X obj 664 335 lop~;
#X floatatom 712 266 5 0 127 1 MIDI - - 0;
#X obj 712 289 mtof;
#X floatatom 712 333 11 0 0 1 Hz - - 0;
#N canvas 1783 81 562 619 bop 1;
#X obj 275 462 bop.casio~;
#A saved wave-1 0.12;
#A saved wave-2 0;
#A saved filter 0.372833;
#A saved attack 0.1;
#A saved decay 0.3;
#A saved sustain 0.7;
#A saved release 0.2;
#A saved gain 1;
#X msg 435 340 wave-1 \$1;
#X obj 438 257 inlet;
#X obj 80 272 sel 0 1;
#X obj 48 349 f;
#X obj 80 243 tgl 19 0 empty empty empty 0 -10 0 12 #fcfcfc #000000 #000000 0 1;
#X obj 49 83 tgl 19 0 empty empty empty 0 -10 0 12 #fcfcfc #000000 #000000 0 1;
#X obj 49 138 t b b;
#X msg 142 311 0.3434;
#X obj 81 166 babs/babs.counter;
#X obj 81 190 % 16;
#X obj 81 214 sel 0;
#X obj 172 70 inlet;
#X obj 249 554 outlet~;
#X obj 47 430 bop.semisteps, f 22;
#A saved semisteps 64;
#A saved root 64;
#A saved hold 0;
#A saved duration 0.015;
#A saved velocity 0.75;
#X msg 48 386 semisteps \$1;
#X msg 200 253 filter loop 1 400 1 80 0.3 8000 0.4 4000 \, duration loop 1 1000 1 1000 0.015 3000 0.015 2000, f 25;
#X obj 200 221 loadbang;
#X obj 438 281 / 100;
#X obj 81 312 f;
#X obj 183 107 / 2;
#X obj 49 110 metro 300;
#X obj 24 479 picodrumz;
#X obj 95 39 metro 400;
#X obj 159 490 *~ 0.5;
#X connect 0 0 13 0;
#X connect 1 0 0 1;
#X connect 2 0 18 0;
#X connect 3 0 19 0;
#X connect 3 1 8 0;
#X connect 4 0 15 0;
#X connect 5 0 3 0;
#X connect 6 0 21 0;
#X connect 6 0 23 0;
#X connect 7 0 4 0;
#X connect 7 1 9 0;
#X connect 8 0 4 1;
#X connect 9 0 10 0;
#X connect 10 0 11 0;
#X connect 11 0 5 0;
#X connect 12 0 20 0;
#X connect 12 0 21 1;
#X connect 14 1 0 0;
#X connect 15 0 14 0;
#X connect 16 0 14 1;
#X connect 17 0 16 0;
#X connect 18 0 1 0;
#X connect 19 0 4 1;
#X connect 20 0 19 1;
#X connect 21 0 7 0;
#X connect 21 0 22 2;
#X connect 22 0 13 0;
#X connect 22 1 13 0;
#X connect 22 2 24 0;
#X connect 23 0 22 0;
#X connect 24 0 13 0;
#X restore 116 343 pd bop;
#X obj 116 239 byteBuffer 2;
#X obj 116 298 unpack f f;
#N canvas 345 115 354 304 to-audio 1;
#X floatatom 190 93 10 0 0 0 - - - 0;
#X obj 190 144 phasor~ 150;
#X obj 55 217 samphold~;
#X obj 55 139 / 255;
#X obj 55 163 * 2;
#X obj 55 187 - 1;
#X obj 190 69 / 10;
#X obj 55 89 inlet;
#X obj 55 242 outlet~;
#X obj 190 29 r baud-final;
#X connect 0 0 1 0;
#X connect 1 0 2 1;
#X connect 2 0 8 0;
#X connect 3 0 4 0;
#X connect 4 0 5 0;
#X connect 5 0 2 0;
#X connect 6 0 0 0;
#X connect 7 0 3 0;
#X connect 9 0 6 0;
#X restore 673 232 pd to-audio;
#X floatatom 124 52 5 0 0 0 - - - 0;
#N canvas 1807 88 423 522 serialguts-2 0;
#N canvas 632 60 748 544 bauds 0;
#X msg 315 330 baud 57600;
#X msg 353 368 baud 230400;
#X msg 334 349 baud 115200;
#X msg 296 311 baud 38400;
#X msg 277 292 baud 19200;
#X msg 258 273 baud 9600;
#X msg 239 254 baud 4800;
#X msg 220 235 baud 2400;
#X msg 201 216 baud 1800;
#X msg 182 197 baud 1200;
#X msg 163 178 baud 600;
#X msg 144 159 baud 300;
#X msg 125 140 baud 200;
#X msg 87 102 baud 134;
#X msg 68 83 baud 110;
#X msg 49 64 baud 75;
#X msg 30 45 baud 50;
#X msg 11 26 baud 0;
#X msg 106 121 baud 150;
#X text 60 25 0 deasserts control lines and resets the serial port;
#X msg 415 417 baud \$1;
#X msg 415 219 115200;
#X floatatom 378 130 7 1 115200 1 divisor - - 0;
#X obj 415 258 / 1;
#X obj 378 159 sel 0;
#X floatatom 415 318 7 0 0 0 - - - 0;
#X text 471 142 (1-115200);
#X obj 415 189 t b f;
#X text 376 112 On Windows some other baud rates might work:;
#X text 8 8 Standard baud rates for linux:;
#X obj 415 469 outlet;
#X obj 378 76 r baud;
#X obj 435 283 s baud-final;
#X connect 0 0 30 0;
#X connect 1 0 30 0;
#X connect 2 0 30 0;
#X connect 3 0 30 0;
#X connect 4 0 30 0;
#X connect 5 0 30 0;
#X connect 6 0 30 0;
#X connect 7 0 30 0;
#X connect 8 0 30 0;
#X connect 9 0 30 0;
#X connect 10 0 30 0;
#X connect 11 0 30 0;
#X connect 12 0 30 0;
#X connect 13 0 30 0;
#X connect 14 0 30 0;
#X connect 15 0 30 0;
#X connect 16 0 30 0;
#X connect 17 0 30 0;
#X connect 18 0 30 0;
#X connect 20 0 30 0;
#X connect 21 0 23 0;
#X connect 22 0 24 0;
#X connect 23 0 25 0;
#X connect 23 0 32 0;
#X connect 24 1 27 0;
#X connect 25 0 20 0;
#X connect 27 0 21 0;
#X connect 27 1 23 1;
#X connect 31 0 22 0;
#X restore 170 178 pd bauds;
#X obj 91 396 spigot;
#X obj 91 420 print;
#X obj 148 392 tgl 19 0 empty empty empty 0 -10 0 12 #fcfcfc #000000 #000000 0 1;
#X obj 26 454 outlet;
#X obj 26 66 select 0 1;
#N canvas 1318 133 361 274 lookup-device-name 0;
#X listbox 149 64 20 0 0 0 - - - 0;
#X obj 59 38 route ports;
#X obj 59 99 list split 1;
#X obj 59 194 spigot;
#X msg 111 165 1;
#X msg 161 165 0;
#X msg 59 219 open \$1;
#X obj 111 140 select /dev/ttyUSB2;
#X connect 1 0 0 0;
#X connect 1 0 2 0;
#X connect 2 0 3 0;
#X connect 2 1 7 0;
#X connect 3 0 6 0;
#X connect 4 0 3 1;
#X connect 5 0 3 1;
#X connect 7 0 4 0;
#X connect 7 1 5 0;
#X restore 198 451 pd lookup-device-name;
#X obj 156 267 route open baud;
#X floatatom 240 302 18 0 0 0 - - - 0;
#N canvas 1461 191 450 300 set-color 0;
#X obj 37 37 inlet;
#X obj 37 62 select 0 1;
#X obj 59 177 loadbang;
#X msg 87 102 \; comport-data-set-2 color 16 12 12 \;;
#X msg 37 212 \; comport-data-set-2 color 13 12 12 \;;
#X connect 0 0 1 0;
#X connect 1 0 4 0;
#X connect 1 1 3 0;
#X connect 2 0 4 0;
#X restore 156 332 pd set-color;
#X msg 26 133 close \, info;
#X obj 26 267 comport;
#X msg 116 133 devicename /dev/ttyUSB2 \, info;
#X obj 26 41 r comport-data-2;
#X connect 0 0 11 0;
#X connect 1 0 2 0;
#X connect 3 0 1 1;
#X connect 5 0 10 0;
#X connect 5 1 12 0;
#X connect 7 0 9 0;
#X connect 7 1 8 0;
#X connect 10 0 11 0;
#X connect 11 0 4 0;
#X connect 11 0 1 0;
#X connect 11 1 7 0;
#X connect 12 0 11 0;
#X connect 13 0 5 0;
#X restore 124 27 pd serialguts-2;
#N canvas 1527 247 772 565 chaos 0;
#X obj 36 170 khaos_machine~;
#X obj 49 41 inlet;
#X obj 95 41 inlet;
#X obj 140 41 inlet;
#X obj 186 41 inlet;
#X obj 64 502 outlet~;
#X obj 48 70 / 255;
#X obj 48 95 * 2;
#X obj 48 120 - 1;
#X obj 95 66 / 255;
#X obj 95 91 * 100;
#X obj 141 69 / 255;
#X obj 141 94 * 100;
#X obj 191 71 / 255;
#X obj 191 96 * 10000;
#X connect 0 0 5 0;
#X connect 1 0 6 0;
#X connect 2 0 9 0;
#X connect 3 0 11 0;
#X connect 4 0 13 0;
#X connect 6 0 7 0;
#X connect 7 0 8 0;
#X connect 8 0 0 0;
#X connect 9 0 10 0;
#X connect 10 0 0 1;
#X connect 11 0 12 0;
#X connect 12 0 0 2;
#X connect 13 0 14 0;
#X connect 14 0 0 3;
#X restore 276 350 pd chaos;
#X obj 280 252 unpack f f;
#X obj 280 222 byteBuffer 2;
#X obj 377 261 unpack f f;
#X obj 379 226 byteBuffer 3;
#N canvas 841 182 429 461 glitchgut 0;
#N canvas 873 449 408 430 glitchcrush 1;
#X obj 35 363 outlet~;
#X obj 142 368 outlet~;
#X floatatom 41 45 20 0 0 0 - - - 0;
#X obj 45 88 * 25;
#X obj 47 124 osc~ 440;
#X floatatom 138 83 5 0 0 0 - - - 0;
#X obj 190 122 osc~ 440;
#X obj 192 79 * 5;
#X floatatom 214 188 5 0 0 0 - - - 0;
#X obj 145 160 * 0.5;
#N canvas 350 133 752 516 crusher 0;
#X obj 52 50 inlet~;
#X obj 52 481 outlet~;
#X obj 52 274 *~;
#X obj 52 398 /~;
#X obj 270 186 pow;
#X msg 270 158 2;
#X obj 270 135 t b f;
#X obj 270 63 inlet;
#X obj 52 100 clip~ -1 1;
#X obj 52 123 +~ 1;
#N canvas 146 38 670 523 round 0;
#X obj 48 29 inlet~;
#X obj 48 425 outlet~;
#X obj 88 128 wrap~;
#X obj 48 169 -~;
#X obj 48 357 +~;
#X obj 131 253 -~ 0.5;
#X obj 131 304 clip~ 0 1;
#X obj 131 279 *~ 65536;
#X text 85 357 << So in the end \, we optionally add 1 in order to round up if the fractional part of the sample is greater than 0.5. The final output has rounded all samples to the nearest N-bit integer \, but in 16-bit resolution;
#X text 200 251 << Here we see how far the sample value's fractional portion is offset from 0.5 \, and scale to 16-bit range. So \, -32768 to +32767 is possible \, with gaps that depend on the chosen bit depth N.;
#X text 200 304 << This outputs 0 if the offset is negative \, and 1 if positive. In other words \, 1 if the fractional part of the sample value is greater than 0.5 \, and 0 otherwise.;
#X text 167 55 This is a routine for rounding the N-bit resolution samples to the nearest integer.;
#X text 129 168 << In effect \, this applies floor() to all samples \, rounding down to the nearest integer. We could actually stop here and it would work pretty well \, but if we want to do round() instead of floor() \, the rest is necessary., f 68;
#X connect 0 0 2 0;
#X connect 0 0 3 0;
#X connect 2 0 3 1;
#X connect 2 0 5 0;
#X connect 3 0 4 0;
#X connect 4 0 1 0;
#X connect 5 0 7 0;
#X connect 6 0 4 1;
#X connect 7 0 6 0;
#X restore 52 346 pd round;
#X text 316 190 calculate how many amplitude gradations there are for the desired bit depth.;
#X text 127 347 << a rounding subpatch to round to the nearest integer and drop all fractional values in signal;
#X floatatom 294 239 10 0 0 0 - - - 0;
#X text 96 120 clip the signal to normal audio range and add a DC offset of 1 then divide by 2 to get the signal in a normalized 0-1 range for processing., f 14;
#X text 126 399 divide back to 0-1 normalized range to get floating-point values \, then subtract 0.5 and multiply by 2 to remove DC offset and get to normal -1 to +1 audio range.;
#X obj 52 433 -~ 0.5;
#X obj 52 454 *~ 2;
#X obj 52 144 *~ 0.5;
#X obj 368 35 loadbang;
#X text 140 275 re-range the signal to be from zero to 2^bitdepth - 1 This will be a large range signal \, but still have fractional values \, not integers only.;
#X obj 270 207 - 1;
#X text 352 96 << allow between 1-24 bits;
#X msg 368 56 24;
#X obj 270 97 clip 1 24;
#X connect 0 0 8 0;
#X connect 2 0 10 0;
#X connect 3 0 16 0;
#X connect 4 0 21 0;
#X connect 5 0 4 0;
#X connect 6 0 5 0;
#X connect 6 1 4 1;
#X connect 7 0 24 0;
#X connect 8 0 9 0;
#X connect 9 0 18 0;
#X connect 10 0 3 0;
#X connect 16 0 17 0;
#X connect 17 0 1 0;
#X connect 18 0 2 0;
#X connect 19 0 23 0;
#X connect 21 0 3 1;
#X connect 21 0 2 1;
#X connect 21 0 13 0;
#X connect 23 0 24 0;
#X connect 24 0 6 0;
#X coords 0 516 1 515 85 40 0;
#X restore 57 177 pd crusher;
#X floatatom 198 257 5 0 0 0 - - - 0;
#X obj 214 211 * 0.1;
#N canvas 194 140 450 417 octave 0;
#X obj 76 22 inlet~;
#X obj 175 198 osc~;
#X obj 118 192 *~;
#X obj 175 145 mtof;
#X obj 118 220 *~ 2;
#N canvas 300 203 546 363 delay 0;
#X obj 85 301 outlet~;
#X obj 101 29 inlet~;
#X obj 85 181 expr 1000*1024/$f1;
#X obj 85 136 samplerate~;
#X text 253 50 write to delay line which has enough memory to hold 40 msec, f 30;
#X text 177 135 get sample rate at load time;
#X text 213 248 read from the delay line at the calculated delay (1024-sample delay), f 36;
#X floatatom 85 215 8 0 0 0 - - - 0;
#X obj 85 110 loadbang;
#X text 230 170 divide 1024 by sample rate to give time in seconds \, multiply by 1000 to convert to milliseconds., f 34;
#X obj 101 57 delwrite~ \$0-del 40;
#X obj 85 254 delread~ \$0-del;
#X connect 1 0 10 0;
#X connect 2 0 7 0;
#X connect 3 0 2 0;
#X connect 7 0 11 0;
#X connect 8 0 3 0;
#X connect 11 0 0 0;
#X restore 71 119 pd delay;
#X obj 129 92 moses 1;
#X obj 129 64 sigmund~ -npts 2048;
#X obj 175 173 * 0.5;
#X obj 71 300 +~;
#X obj 103 367 outlet~;
#X connect 0 0 7 0;
#X connect 0 0 5 0;
#X connect 1 0 2 1;
#X connect 2 0 4 0;
#X connect 3 0 8 0;
#X connect 4 0 9 1;
#X connect 5 0 2 0;
#X connect 5 0 9 0;
#X connect 6 1 3 0;
#X connect 7 0 6 0;
#X connect 8 0 1 0;
#X connect 9 0 10 0;
#X restore 124 281 pd octave;
#X obj 84 228 rev3~ 100 85;
#X obj 40 10 inlet;
#X obj 222 29 inlet;
#X obj 348 192 osc~;
#X obj 302 90 * 100;
#X obj 273 282 *~ 0.25;
#X connect 2 0 3 0;
#X connect 2 0 5 0;
#X connect 2 0 7 0;
#X connect 3 0 4 0;
#X connect 4 0 10 0;
#X connect 5 0 3 1;
#X connect 5 0 9 0;
#X connect 6 0 14 1;
#X connect 7 0 6 0;
#X connect 8 0 12 0;
#X connect 8 0 14 3;
#X connect 9 0 8 0;
#X connect 10 0 14 0;
#X connect 11 0 10 1;
#X connect 12 0 11 0;
#X connect 13 0 1 0;
#X connect 14 0 0 0;
#X connect 14 1 13 0;
#X connect 15 0 2 0;
#X connect 16 0 7 1;
#X connect 16 0 18 0;
#X connect 17 0 19 0;
#X connect 18 0 17 0;
#X connect 19 0 1 0;
#X restore 25 161 pd glitchcrush;
#X obj 24 104 byteBuffer 4;
#X obj 24 129 unpack f f f f;
#X obj 23 38 inlet;
#X obj 26 230 outlet~;
#X obj 119 231 outlet~;
#X obj 160 30 inlet;
#N canvas 654 130 615 379 vid 0;
#X obj 70 138 bng 20 250 50 0 empty empty empty 0 -10 0 12 #fcfcfc #000000 #000000;
#X obj 50 173 random 64;
#X obj 50 198 + 1;
#X obj 50 61 tgl 20 0 empty empty empty 0 -10 0 12 #fcfcfc #000000 #000000 0 1;
#X obj 50 25 inlet;
#X obj 183 58 select 0 1;
#X obj 183 289 comport;
#X obj 284 255 route open baud;
#X floatatom 368 290 18 0 0 0 - - - 0;
#N canvas 0 101 450 300 set-color 0;
#X obj 37 37 inlet;
#X obj 37 62 select 0 1;
#X obj 59 177 loadbang;
#X msg 87 102 \; comport-video-set color 16 12 12 \;;
#X msg 37 212 \; comport-video-set color 13 12 12 \;;
#X connect 0 0 1 0;
#X connect 1 0 4 0;
#X connect 1 1 3 0;
#X connect 2 0 4 0;
#X restore 284 320 pd set-color;
#X obj 183 33 r comport-video;
#X msg 183 125 close \, info;
#X obj 12 132 bng 20 250 50 0 empty empty empty 0 -10 0 12 #fcfcfc #000000 #000000;
#X msg 273 125 devicename /dev/ttyUSB1 \, baud 57600 \, info;
#X obj 314 180 r reset-vid;
#X obj 314 205 0;
#X obj 77 249 spigot;
#X obj 122 208 inlet;
#X obj 50 96 metro 4000;
#X connect 0 0 1 0;
#X connect 1 0 2 0;
#X connect 2 0 16 0;
#X connect 3 0 18 0;
#X connect 4 0 3 0;
#X connect 5 0 11 0;
#X connect 5 1 13 0;
#X connect 6 1 7 0;
#X connect 7 0 9 0;
#X connect 7 1 8 0;
#X connect 10 0 5 0;
#X connect 11 0 6 0;
#X connect 13 0 6 0;
#X connect 14 0 15 0;
#X connect 15 0 6 0;
#X connect 16 0 6 0;
#X connect 17 0 16 1;
#X connect 18 0 1 0;
#X connect 18 0 12 0;
#X restore 217 184 pd vid;
#X obj 256 149 tgl 20 0 empty empty empty 0 -10 0 12 #fcfcfc #000000 #000000 0 1;
#X obj 160 55 byteBuffer 1000;
#X obj 151 127 unpack f;
#X obj 151 152 > 200;
#X connect 0 0 4 0;
#X connect 0 1 5 0;
#X connect 1 0 2 0;
#X connect 2 0 0 0;
#X connect 3 0 1 0;
#X connect 6 0 9 0;
#X connect 6 0 10 0;
#X connect 6 0 0 1;
#X connect 8 0 7 1;
#X connect 10 0 11 0;
#X restore 9 234 pd glitchgut;
#N canvas 1284 118 467 409 route 0;
#X obj 25 122 route 0 1 2 3 4 5 6 7;
#X obj 14 42 t f f b;
#X obj 37 88 f -1;
#X obj 379 125 inlet;
#X obj 14 220 spigot;
#X obj 63 220 spigot;
#X obj 112 220 spigot;
#X obj 161 220 spigot;
#X obj 210 220 spigot;
#X obj 259 220 spigot;
#X obj 308 220 spigot;
#X obj 357 220 spigot;
#X obj 12 266 outlet;
#X obj 62 266 outlet;
#X obj 112 266 outlet;
#X obj 162 266 outlet;
#X obj 212 266 outlet;
#X obj 262 266 outlet;
#X obj 312 266 outlet;
#X obj 362 266 outlet;
#X obj 14 15 r patchsel;
#X obj 16 169 tgl 20 0 empty empty empty 0 -10 0 12 #fcfcfc #000000 #000000 0 1;
#X obj 39 169 tgl 20 0 empty empty empty 0 -10 0 12 #fcfcfc #000000 #000000 0 1;
#X obj 63 169 tgl 20 0 empty empty empty 0 -10 0 12 #fcfcfc #000000 #000000 0 1;
#X obj 86 169 tgl 20 0 empty empty empty 0 -10 0 12 #fcfcfc #000000 #000000 0 1;
#X obj 110 169 tgl 20 0 empty empty empty 0 -10 0 12 #fcfcfc #000000 #000000 0 1;
#X obj 133 169 tgl 20 0 empty empty empty 0 -10 0 12 #fcfcfc #000000 #000000 0 1;
#X obj 157 169 tgl 20 0 empty empty empty 0 -10 0 12 #fcfcfc #000000 #000000 0 1;
#X obj 180 169 tgl 20 0 empty empty empty 0 -10 0 12 #fcfcfc #000000 #000000 0 1;
#X connect 0 0 21 0;
#X connect 0 1 22 0;
#X connect 0 2 23 0;
#X connect 0 3 24 0;
#X connect 0 4 25 0;
#X connect 0 5 26 0;
#X connect 0 6 27 0;
#X connect 0 7 28 0;
#X connect 1 0 2 1;
#X connect 1 1 2 0;
#X connect 1 2 2 0;
#X connect 2 0 0 0;
#X connect 3 0 4 0;
#X connect 3 0 11 0;
#X connect 3 0 10 0;
#X connect 3 0 9 0;
#X connect 3 0 8 0;
#X connect 3 0 7 0;
#X connect 3 0 6 0;
#X connect 3 0 5 0;
#X connect 4 0 12 0;
#X connect 5 0 13 0;
#X connect 6 0 14 0;
#X connect 7 0 15 0;
#X connect 8 0 16 0;
#X connect 9 0 17 0;
#X connect 10 0 18 0;
#X connect 11 0 19 0;
#X connect 20 0 1 0;
#X connect 21 0 4 1;
#X connect 22 0 5 1;
#X connect 23 0 6 1;
#X connect 24 0 7 1;
#X connect 25 0 8 1;
#X connect 26 0 9 1;
#X connect 27 0 10 1;
#X connect 28 0 11 1;
#X restore 24 80 pd route;
#X f 18;
#N canvas 1293 126 456 428 route 0;
#X obj 25 122 route 0 1 2 3 4 5 6 7;
#X obj 14 42 t f f b;
#X obj 37 88 f -1;
#X obj 379 125 inlet;
#X obj 14 220 spigot;
#X obj 63 220 spigot;
#X obj 112 220 spigot;
#X obj 161 220 spigot;
#X obj 210 220 spigot;
#X obj 259 220 spigot;
#X obj 308 220 spigot;
#X obj 357 220 spigot;
#X obj 12 266 outlet;
#X obj 62 266 outlet;
#X obj 112 266 outlet;
#X obj 162 266 outlet;
#X obj 212 266 outlet;
#X obj 262 266 outlet;
#X obj 312 266 outlet;
#X obj 362 266 outlet;
#X obj 14 15 r patchsel;
#X obj 16 169 tgl 20 0 empty empty empty 0 -10 0 12 #fcfcfc #000000 #000000 0 1;
#X obj 39 169 tgl 20 0 empty empty empty 0 -10 0 12 #fcfcfc #000000 #000000 0 1;
#X obj 63 169 tgl 20 0 empty empty empty 0 -10 0 12 #fcfcfc #000000 #000000 0 1;
#X obj 86 169 tgl 20 0 empty empty empty 0 -10 0 12 #fcfcfc #000000 #000000 0 1;
#X obj 110 169 tgl 20 0 empty empty empty 0 -10 0 12 #fcfcfc #000000 #000000 0 1;
#X obj 133 169 tgl 20 0 empty empty empty 0 -10 0 12 #fcfcfc #000000 #000000 0 1;
#X obj 157 169 tgl 20 0 empty empty empty 0 -10 0 12 #fcfcfc #000000 #000000 0 1;
#X obj 180 169 tgl 20 0 empty empty empty 0 -10 0 12 #fcfcfc #000000 #000000 0 1;
#X connect 0 0 21 0;
#X connect 0 1 22 0;
#X connect 0 2 23 0;
#X connect 0 3 24 0;
#X connect 0 4 25 0;
#X connect 0 5 26 0;
#X connect 0 6 27 0;
#X connect 0 7 28 0;
#X connect 1 0 2 1;
#X connect 1 1 2 0;
#X connect 1 2 2 0;
#X connect 2 0 0 0;
#X connect 3 0 4 0;
#X connect 3 0 11 0;
#X connect 3 0 10 0;
#X connect 3 0 9 0;
#X connect 3 0 8 0;
#X connect 3 0 7 0;
#X connect 3 0 6 0;
#X connect 3 0 5 0;
#X connect 4 0 12 0;
#X connect 5 0 13 0;
#X connect 6 0 14 0;
#X connect 7 0 15 0;
#X connect 8 0 16 0;
#X connect 9 0 17 0;
#X connect 10 0 18 0;
#X connect 11 0 19 0;
#X connect 20 0 1 0;
#X connect 21 0 4 1;
#X connect 22 0 5 1;
#X connect 23 0 6 1;
#X connect 24 0 7 1;
#X connect 25 0 8 1;
#X connect 26 0 9 1;
#X connect 27 0 10 1;
#X connect 28 0 11 1;
#X restore 174 83 pd route;
#X f 23;
#X obj 69 502 outlet~;
#N canvas 188 41 1081 447 algo 0;
#X obj 39 317 algo~, f 26;
#X obj 42 575 outlet~;
#X obj 122 575 outlet~;
#X obj 37 357 hip~ 3;
#X obj 176 21 inlet;
#N canvas 907 190 735 518 main-settings 0;
#X floatatom 70 255 9 1 192000 1 sr - - 0;
#X floatatom 70 225 5 1 32 1 bit-depth - - 0;
#X obj 70 466 outlet;
#X msg 70 342 bitDepth \$1;
#X msg 320 122 set \$1;
#X msg 390 122 set \$1;
#X text 462 74 Update the GUI controls here if a preset is loaded, f 32;
#X obj 320 14 r \$0-output-current-settings;
#X obj 320 38 list split 1;
#X obj 320 98 unpack f f;
#X obj 323 353 loadbang;
#X obj 320 68 list split 20;
#X msg 323 407 getAlgoSettings \, getNumAlgoParams;
#X text 412 329 Once the object has loaded and creation arguments are processed \, request algo settings so that the patch's GUI controls can be updated., f 37;
#X text 250 230 Change the samplerate (1-FLT_MAX) \, and bit-depth (1-32) via the "sampleRate" \, and "bitDepth" messages, f 37;
#X msg 170 342 sampleRate \$1;
#X obj 33 107 inlet;
#X connect 0 0 15 0;
#X connect 1 0 3 0;
#X connect 3 0 2 0;
#X connect 4 0 1 0;
#X connect 5 0 0 0;
#X connect 7 0 8 0;
#X connect 8 1 11 0;
#X connect 9 0 4 0;
#X connect 9 1 5 0;
#X connect 10 0 12 0;
#X connect 11 1 9 0;
#X connect 12 0 2 0;
#X connect 15 0 2 0;
#X connect 16 0 0 0;
#X coords 0 -1 1 1 125 80 1 65 200;
#X restore 652 446 pd main-settings;
#X floatatom 176 46 5 0 0 0 - - - 0;
#N canvas 335 24 851 550 set-parameters 0;
#X floatatom 110 229 5 0 16384 0 - - - 0;
#X floatatom 160 229 5 0 16384 0 - - - 0;
#X obj 160 312 t b f;
#X floatatom 210 229 5 0 16384 0 - - - 0;
#X obj 210 312 t b f;
#X floatatom 260 229 5 0 16384 0 - - - 0;
#X obj 260 312 t b f;
#X floatatom 310 229 5 0 16384 0 - - - 0;
#X obj 310 312 t b f;
#X floatatom 360 229 5 0 16384 0 - - - 0;
#X obj 360 312 t b f;
#X floatatom 410 229 5 0 16384 0 - - - 0;
#X obj 410 312 t b f;
#X floatatom 460 229 5 0 16384 0 - - - 0;
#X obj 460 312 t b f;
#X floatatom 510 229 5 0 16384 0 - - - 0;
#X obj 510 312 t b f;
#X floatatom 560 229 5 0 16384 0 - - - 0;
#X obj 560 312 t b f;
#X obj 110 396 list prepend parameters;
#X obj 110 420 list trim;
#X obj 110 372 pack f f f f f f f f f f;
#X obj 110 444 outlet;
#X text 367 49 Update the GUI controls here if a preset is loaded, f 32;
#X text 311 390 This sends a list of 10 parameters via the "parameters" message. The remaining values (up to the maximum of 20 parameters) are initialized to zero. Values should be between 0 and UINT_MAX. Note that the number of parameters in a given algorithm varies between one and twenty. When the "algo" message is received \, the object will automatically report the number of parameters for the active algorithm at the 3rd outlet. The "getNumAlgoParams" will also produce this output., f 71;
#X obj 125 125 unpack f f f f f f f f f f;
#X obj 138 51 inlet;
#X obj 126 99 byteBuffer 10000;
#X obj 233 26 inlet;
#X obj 233 51 * 1000;
#X connect 0 0 21 0;
#X connect 1 0 2 0;
#X connect 2 0 21 0;
#X connect 2 1 21 1;
#X connect 3 0 4 0;
#X connect 4 0 21 0;
#X connect 4 1 21 2;
#X connect 5 0 6 0;
#X connect 6 0 21 0;
#X connect 6 1 21 3;
#X connect 7 0 8 0;
#X connect 8 0 21 0;
#X connect 8 1 21 4;
#X connect 9 0 10 0;
#X connect 10 0 21 0;
#X connect 10 1 21 5;
#X connect 11 0 12 0;
#X connect 12 0 21 0;
#X connect 12 1 21 6;
#X connect 13 0 14 0;
#X connect 14 0 21 0;
#X connect 14 1 21 7;
#X connect 15 0 16 0;
#X connect 16 0 21 0;
#X connect 16 1 21 8;
#X connect 17 0 18 0;
#X connect 18 0 21 0;
#X connect 18 1 21 9;
#X connect 19 0 20 0;
#X connect 20 0 22 0;
#X connect 21 0 19 0;
#X connect 25 0 0 0;
#X connect 25 1 1 0;
#X connect 25 2 3 0;
#X connect 25 3 5 0;
#X connect 25 4 7 0;
#X connect 25 5 9 0;
#X connect 25 6 11 0;
#X connect 25 7 13 0;
#X connect 25 8 15 0;
#X connect 25 9 17 0;
#X connect 26 0 27 0;
#X connect 27 0 25 0;
#X connect 28 0 29 0;
#X connect 29 0 27 1;
#X coords 0 -1 1 1 510 45 1 100 210;
#X restore 101 96 pd set-parameters;
#X msg 203 250 algo t*(t^t+(t>>p1|1)^(t-1280^t)>>p2);
#X obj 593 19 inlet;
#X obj 628 74 byteBuffer 3000;
#X obj 236 318 algo~, f 23;
#X obj 243 361 hip~ 3;
#X msg 182 193 algo (t-(t>>(p4/4)&t>>8)&t>>12)-1;
#N canvas 416 346 951 718 verb 0;
#N canvas 487 199 450 417 octave 0;
#X obj 76 22 inlet~;
#X obj 175 198 osc~;
#X obj 118 192 *~;
#X obj 175 145 mtof;
#X obj 118 220 *~ 2;
#N canvas 300 203 546 363 delay 0;
#X obj 85 301 outlet~;
#X obj 101 29 inlet~;
#X obj 85 181 expr 1000*1024/$f1;
#X obj 85 136 samplerate~;
#X text 253 50 write to delay line which has enough memory to hold 40 msec, f 30;
#X text 177 135 get sample rate at load time;
#X text 213 248 read from the delay line at the calculated delay (1024-sample delay), f 36;
#X floatatom 85 215 8 0 0 0 - - - 0;
#X obj 85 110 loadbang;
#X text 230 170 divide 1024 by sample rate to give time in seconds \, multiply by 1000 to convert to milliseconds., f 34;
#X obj 101 57 delwrite~ \$0-del 40;
#X obj 85 254 delread~ \$0-del;
#X connect 1 0 10 0;
#X connect 2 0 7 0;
#X connect 3 0 2 0;
#X connect 7 0 11 0;
#X connect 8 0 3 0;
#X connect 11 0 0 0;
#X restore 71 119 pd delay;
#X obj 129 92 moses 1;
#X obj 129 64 sigmund~ -npts 2048;
#X obj 175 173 * 0.5;
#X obj 71 300 +~;
#X obj 103 367 outlet~;
#X connect 0 0 7 0;
#X connect 0 0 5 0;
#X connect 1 0 2 1;
#X connect 2 0 4 0;
#X connect 3 0 8 0;
#X connect 4 0 9 1;
#X connect 5 0 2 0;
#X connect 5 0 9 0;
#X connect 6 1 3 0;
#X connect 7 0 6 0;
#X connect 8 0 1 0;
#X connect 9 0 10 0;
#X restore 310 285 pd octave;
#X obj 270 232 rev3~ 100 85, f 29;
#X obj 490 219 unpack f;
#X obj 490 269 > 50;
#X obj 53 67 inlet~;
#X obj 242 98 inlet~;
#X obj 491 155 inlet;
#X obj 374 14 inlet;
#X obj 374 39 tgl 20 0 empty empty empty 0 -10 0 12 #fcfcfc #000000 #000000 0 1;
#X obj 442 42 route 0 1;
#X obj 106 162 *~;
#X obj 475 95 0;
#X obj 152 164 *~;
#X obj 408 97 1;
#X obj 138 541 outlet~;
#X obj 328 555 outlet~;
#X obj 579 96 0;
#X obj 293 183 *~;
#X obj 350 181 *~;
#X obj 625 101 1;
#X obj 521 332 outlet;
#X obj 490 244 * 1;
#X connect 0 0 15 0;
#X connect 1 0 14 0;
#X connect 1 1 0 0;
#X connect 1 2 15 0;
#X connect 2 0 21 0;
#X connect 3 0 20 0;
#X connect 4 0 10 0;
#X connect 4 0 17 0;
#X connect 5 0 12 0;
#X connect 5 0 18 0;
#X connect 6 0 2 0;
#X connect 7 0 8 0;
#X connect 8 0 9 0;
#X connect 9 0 13 0;
#X connect 9 0 16 0;
#X connect 9 1 11 0;
#X connect 9 1 19 0;
#X connect 10 0 14 0;
#X connect 11 0 10 1;
#X connect 11 0 12 1;
#X connect 12 0 15 0;
#X connect 13 0 10 1;
#X connect 13 0 12 1;
#X connect 16 0 17 1;
#X connect 16 0 18 1;
#X connect 17 0 1 0;
#X connect 18 0 1 1;
#X connect 19 0 18 1;
#X connect 19 0 17 1;
#X connect 21 0 1 3;
#X connect 21 0 3 0;
#X restore 42 452 pd verb;
#X obj 110 361 tgl 20 0 empty empty empty 0 -10 0 12 #fcfcfc #000000 #000000 0 1;
#X msg 456 190 algo t%(t/(t>>9|t>>8))|t>>p2;
#X msg 543 228 algo (3*t&t>>8)|40000/(t%4096)|6*(t>>(p1)|t>>10)>>(t>>16);
#X msg 631 309 algo (t%4096)/(t%((t&t>>12)))|p2;
#X obj 750 377 unpack f;
#X obj 750 402 * 1000;
#N canvas 1447 212 615 379 vid 0;
#X obj 70 138 bng 20 250 50 0 empty empty empty 0 -10 0 12 #fcfcfc #000000 #000000;
#X obj 50 173 random 64;
#X obj 50 198 + 1;
#X obj 50 61 tgl 20 0 empty empty empty 0 -10 0 12 #fcfcfc #000000 #000000 0 1;
#X obj 50 25 inlet;
#X obj 183 58 select 0 1;
#X obj 183 289 comport;
#X obj 284 255 route open baud;
#X floatatom 368 290 18 0 0 0 - - - 0;
#N canvas 0 101 450 300 set-color 0;
#X obj 37 37 inlet;
#X obj 37 62 select 0 1;
#X obj 59 177 loadbang;
#X msg 87 102 \; comport-video-set color 16 12 12 \;;
#X msg 37 212 \; comport-video-set color 13 12 12 \;;
#X connect 0 0 1 0;
#X connect 1 0 4 0;
#X connect 1 1 3 0;
#X connect 2 0 4 0;
#X restore 284 320 pd set-color;
#X obj 183 33 r comport-video;
#X msg 183 125 close \, info;
#X obj 12 132 bng 20 250 50 0 empty empty empty 0 -10 0 12 #fcfcfc #000000 #000000;
#X obj 50 96 metro 40;
#X msg 273 125 devicename /dev/ttyUSB1 \, baud 57600 \, info;
#X obj 314 180 r reset-vid;
#X obj 314 205 0;
#X obj 77 249 spigot;
#X obj 122 208 inlet;
#X connect 0 0 1 0;
#X connect 1 0 2 0;
#X connect 2 0 17 0;
#X connect 3 0 13 0;
#X connect 4 0 3 0;
#X connect 5 0 11 0;
#X connect 5 1 14 0;
#X connect 6 1 7 0;
#X connect 7 0 9 0;
#X connect 7 1 8 0;
#X connect 10 0 5 0;
#X connect 11 0 6 0;
#X connect 13 0 1 0;
#X connect 13 0 12 0;
#X connect 14 0 6 0;
#X connect 15 0 16 0;
#X connect 16 0 6 0;
#X connect 17 0 6 0;
#X connect 18 0 17 1;
#X restore 135 506 pd vid;
#X obj 174 471 tgl 20 0 empty empty empty 0 -10 0 12 #fcfcfc #000000 #000000 0 1;
#X connect 0 0 3 0;
#X connect 3 0 14 0;
#X connect 4 0 6 0;
#X connect 5 0 0 0;
#X connect 6 0 7 0;
#X connect 7 0 0 0;
#X connect 7 0 11 0;
#X connect 8 0 0 0;
#X connect 9 0 10 0;
#X connect 10 0 7 1;
#X connect 10 0 14 3;
#X connect 10 0 19 0;
#X connect 11 0 12 0;
#X connect 12 0 14 1;
#X connect 13 0 0 0;
#X connect 13 0 11 0;
#X connect 14 0 1 0;
#X connect 14 1 2 0;
#X connect 14 2 21 0;
#X connect 15 0 14 2;
#X connect 16 0 0 0;
#X connect 16 0 11 0;
#X connect 17 0 0 0;
#X connect 17 0 11 0;
#X connect 18 0 11 0;
#X connect 18 0 0 0;
#X connect 19 0 20 0;
#X connect 20 0 5 0;
#X connect 22 0 21 1;
#X restore 470 280 pd algo;
#N canvas 722 57 497 586 fmGen 1;
#X obj 12 45 inlet;
#X obj 12 70 byteBuffer 8;
#X obj 12 95 unpack f f f f f f f f;
#X obj 12 158 +~;
#X obj 11 219 osc~;
#X obj 64 158 +~;
#X obj 63 219 osc~;
#X obj 114 158 +~;
#X obj 113 219 osc~;
#X obj 164 158 +~;
#X obj 163 219 osc~;
#X obj 172 25 osc~;
#X obj 172 50 *~;
#X obj 210 25 r mod-ind;
#X obj 207 53 osc~;
#X obj 207 78 *~;
#X obj 245 53 r mod-ind;
#X obj 242 80 osc~;
#X obj 242 105 *~;
#X obj 280 80 r mod-ind;
#X obj 277 108 osc~;
#X obj 277 133 *~;
#X obj 315 108 r mod-ind;
#X obj 13 301 +~;
#X obj 13 326 outlet~;
#X floatatom 359 192 5 0 0 0 mod-index s-mod-ind mod-ind 0;
#X obj 11 195 *~ 10;
#X obj 63 191 *~ 15;
#X obj 117 187 *~ 20;
#X obj 12 245 *~ 0.3;
#X obj 63 244 *~ 0.3;
#X obj 113 243 *~ 0.3;
#X obj 163 244 *~ 0.3;
#X obj 170 189 *~ 30;
#X obj 308 360 timer;
#X floatatom 308 385 11 0 0 0 - - - 0;
#X obj 321 241 byteBuffer 2;
#X obj 321 266 unpack f f;
#X obj 306 307 bang;
#X obj 366 308 bang;
#N canvas 654 130 615 379 vid 1;
#X obj 70 138 bng 20 250 50 0 empty empty empty 0 -10 0 12 #fcfcfc #000000 #000000;
#X obj 50 173 random 64;
#X obj 50 198 + 1;
#X obj 50 61 tgl 20 0 empty empty empty 0 -10 0 12 #fcfcfc #000000 #000000 0 1;
#X obj 50 25 inlet;
#X obj 183 58 select 0 1;
#X obj 183 289 comport;
#X obj 284 255 route open baud;
#X floatatom 368 290 18 0 0 0 - - - 0;
#N canvas 0 101 450 300 set-color 0;
#X obj 37 37 inlet;
#X obj 37 62 select 0 1;
#X obj 59 177 loadbang;
#X msg 87 102 \; comport-video-set color 16 12 12 \;;
#X msg 37 212 \; comport-video-set color 13 12 12 \;;
#X connect 0 0 1 0;
#X connect 1 0 4 0;
#X connect 1 1 3 0;
#X connect 2 0 4 0;
#X restore 284 320 pd set-color;
#X obj 183 33 r comport-video;
#X msg 183 125 close \, info;
#X obj 12 132 bng 20 250 50 0 empty empty empty 0 -10 0 12 #fcfcfc #000000 #000000;
#X msg 273 125 devicename /dev/ttyUSB1 \, baud 57600 \, info;
#X obj 314 180 r reset-vid;
#X obj 314 205 0;
#X obj 77 249 spigot;
#X obj 122 208 inlet;
#X obj 50 96 metro 4000;
#X connect 0 0 1 0;
#X connect 1 0 2 0;
#X connect 2 0 16 0;
#X connect 3 0 18 0;
#X connect 4 0 3 0;
#X connect 5 0 11 0;
#X connect 5 1 13 0;
#X connect 6 1 7 0;
#X connect 7 0 9 0;
#X connect 7 1 8 0;
#X connect 10 0 5 0;
#X connect 11 0 6 0;
#X connect 13 0 6 0;
#X connect 14 0 15 0;
#X connect 15 0 6 0;
#X connect 16 0 6 0;
#X connect 17 0 16 1;
#X connect 18 0 1 0;
#X connect 18 0 12 0;
#X restore 356 455 pd vid;
#X obj 395 420 tgl 20 0 empty empty empty 0 -10 0 12 #fcfcfc #000000 #000000 0 1;
#X obj 308 409 > 10;
#X connect 0 0 1 0;
#X connect 0 0 36 0;
#X connect 1 0 2 0;
#X connect 2 0 3 0;
#X connect 2 1 5 0;
#X connect 2 2 7 1;
#X connect 2 3 9 0;
#X connect 2 4 11 0;
#X connect 2 5 14 0;
#X connect 2 6 17 0;
#X connect 2 7 20 0;
#X connect 3 0 26 0;
#X connect 4 0 29 0;
#X connect 5 0 27 0;
#X connect 6 0 30 0;
#X connect 7 0 28 0;
#X connect 8 0 31 0;
#X connect 9 0 33 0;
#X connect 10 0 32 0;
#X connect 11 0 12 0;
#X connect 12 0 3 1;
#X connect 13 0 12 1;
#X connect 14 0 15 0;
#X connect 15 0 5 1;
#X connect 16 0 15 1;
#X connect 17 0 18 0;
#X connect 18 0 7 1;
#X connect 19 0 18 1;
#X connect 20 0 21 0;
#X connect 21 0 9 1;
#X connect 22 0 21 1;
#X connect 23 0 24 0;
#X connect 26 0 4 0;
#X connect 27 0 6 0;
#X connect 28 0 8 0;
#X connect 29 0 23 0;
#X connect 30 0 23 0;
#X connect 31 0 23 0;
#X connect 32 0 23 0;
#X connect 33 0 10 0;
#X connect 34 0 35 0;
#X connect 35 0 42 0;
#X connect 36 0 37 0;
#X connect 37 0 38 0;
#X connect 37 1 39 0;
#X connect 38 0 34 0;
#X connect 39 0 34 1;
#X connect 41 0 40 1;
#X connect 42 0 40 0;
#X restore 586 233 pd fmGen;
#N canvas 458 130 615 379 vid 0;
#X obj 70 138 bng 20 250 50 0 empty empty empty 0 -10 0 12 #fcfcfc #000000 #000000;
#X obj 50 173 random 64;
#X obj 50 198 + 1;
#X obj 50 61 tgl 20 0 empty empty empty 0 -10 0 12 #fcfcfc #000000 #000000 0 1;
#X obj 50 25 inlet;
#X obj 183 58 select 0 1;
#X obj 183 289 comport;
#X obj 284 255 route open baud;
#X floatatom 368 290 18 0 0 0 - - - 0;
#N canvas 0 101 450 300 set-color 0;
#X obj 37 37 inlet;
#X obj 37 62 select 0 1;
#X obj 59 177 loadbang;
#X msg 87 102 \; comport-video-set color 16 12 12 \;;
#X msg 37 212 \; comport-video-set color 13 12 12 \;;
#X connect 0 0 1 0;
#X connect 1 0 4 0;
#X connect 1 1 3 0;
#X connect 2 0 4 0;
#X restore 284 320 pd set-color;
#X obj 183 33 r comport-video;
#X msg 183 125 close \, info;
#X obj 12 132 bng 20 250 50 0 empty empty empty 0 -10 0 12 #fcfcfc #000000 #000000;
#X obj 50 96 metro 40;
#X msg 273 125 devicename /dev/ttyUSB1 \, baud 57600 \, info;
#X obj 314 180 r reset-vid;
#X obj 314 205 0;
#X obj 77 249 spigot;
#X obj 122 208 inlet;
#X connect 0 0 1 0;
#X connect 1 0 2 0;
#X connect 2 0 17 0;
#X connect 3 0 13 0;
#X connect 4 0 3 0;
#X connect 5 0 11 0;
#X connect 5 1 14 0;
#X connect 6 1 7 0;
#X connect 7 0 9 0;
#X connect 7 1 8 0;
#X connect 10 0 5 0;
#X connect 11 0 6 0;
#X connect 13 0 1 0;
#X connect 13 0 12 0;
#X connect 14 0 6 0;
#X connect 15 0 16 0;
#X connect 16 0 6 0;
#X connect 17 0 6 0;
#X connect 18 0 17 1;
#X restore 356 477 pd vid;
#X obj 395 442 tgl 20 0 empty empty empty 0 -10 0 12 #fcfcfc #000000 #000000 0 1;
#X floatatom 346 409 5 0 0 0 - - - 0;
#X obj 810 330 lop~;
#X floatatom 858 261 5 0 127 1 MIDI - - 0;
#X obj 858 284 mtof;
#X floatatom 858 328 11 0 0 1 Hz - - 0;
#N canvas 117 336 354 304 to-audio 0;
#X floatatom 190 93 10 0 0 0 - - - 0;
#X obj 190 144 phasor~ 150;
#X obj 55 217 samphold~;
#X obj 55 139 / 255;
#X obj 55 163 * 2;
#X obj 55 187 - 1;
#X obj 190 69 / 10;
#X obj 55 89 inlet;
#X obj 55 242 outlet~;
#X obj 190 29 r baud-final;
#X connect 0 0 1 0;
#X connect 1 0 2 1;
#X connect 2 0 8 0;
#X connect 3 0 4 0;
#X connect 4 0 5 0;
#X connect 5 0 2 0;
#X connect 6 0 0 0;
#X connect 7 0 3 0;
#X connect 9 0 6 0;
#X restore 819 227 pd to-audio;
#X connect 1 0 19 0;
#X connect 2 0 9 0;
#X connect 4 0 5 0;
#X connect 5 0 6 0;
#X connect 5 0 3 1;
#X connect 8 0 2 0;
#X connect 9 0 7 0;
#X connect 9 1 7 1;
#X connect 11 0 20 0;
#X connect 12 0 11 0;
#X connect 14 0 13 0;
#X connect 14 1 13 1;
#X connect 15 0 14 0;
#X connect 16 0 13 2;
#X connect 16 1 13 3;
#X connect 17 0 16 0;
#X connect 19 0 18 0;
#X connect 19 2 15 0;
#X connect 19 3 22 0;
#X connect 19 5 10 0;
#X connect 20 0 18 1;
#X connect 20 1 8 0;
#X connect 20 2 17 0;
#X connect 20 3 22 1;
#X connect 20 4 23 0;
#X connect 20 5 31 0;
#X connect 22 0 21 0;
#X connect 22 1 0 0;
#X connect 25 0 24 1;
#X connect 26 0 24 0;
#X connect 28 0 29 0;
#X connect 29 0 30 0;
#X connect 29 0 27 1;
#X restore 21 28 pd main;
#X floatatom 121 39 5 0 0 1 baud\ control\ (divisor\ 115200) baud-set baud 0;
#N canvas 735 97 450 300 init 0;
#X obj 167 207 declare -path ./bop;
#X obj 68 40 loadbang;
#X obj 167 242 declare -path ./NIRbedtime;
#X msg 68 65 \; baud-set 1 \; patchsel-set 1 \;;
#X connect 1 0 3 0;
#X restore 263 205 pd init;
#X obj 121 79 tgl 20 0 comport-data comport-data-set Data\ Connection 24 10 0 12 #14e814 #202020 #202020 0 1;
#X obj 121 109 tgl 20 0 comport-video comport-video-set Video\ Connection 24 10 0 12 #14e814 #202020 #202020 0 1;
#X obj 269 77 tgl 20 0 comport-data-2 comport-data-set-2 Data\ Connection 24 10 0 12 #14e814 #202020 #202020 0 1;
#X obj 165 162 hradio 20 1 0 8 patchsel patchsel-set Patch\ Select 0 -10 0 12 #fcfcfc #000000 #000000 0;
#X obj 387 208 s reset-vid;
#X obj 388 169 bng 20 250 50 0 empty empty empty 0 -10 0 12 #fcfcfc #000000 #000000;
#X connect 1 0 0 0;
#X connect 1 1 0 1;
#X connect 9 0 8 0;
