#N canvas 806 256 1590 847 10;
#X obj 105 205 bng 31 250 50 0 kickBangOut empty empty 17 7 0 10 #fcfcfc #ff0000 #000000;
#N canvas 0 0 1608 887 decentKick 0;
#X obj 170 -230 bng 24 250 50 0 empty empty empty 17 7 0 10 #00fc04 #000000 #000000;
#X msg 148 -185 0 \, 1 200;
#X obj 153 -148 line~;
#X text 318 -161 <- Ramp Generator;
#X obj 153 14 -~ 0.25;
#X obj 153 43 cos~;
#X obj 153 -114 sqrt~;
#X obj 153 77 lop~ 1000;
#X text 248 -1 <- Sine Waveshaper;
#X text 213 -114 <- Pitch Bend;
#X obj 317 -111 hsl 128 15 6 100 0 0 empty empty empty -2 -8 0 10 #fcfcfc #000000 #000000 0 1;
#X obj 313 44 hsl 128 15 0.01 1 0 0 empty empty empty -2 -8 0 10 #fcfcfc #000000 #000000 0 1;
#X floatatom 313 69 5 0 0 0 - - - 0;
#X obj 308 104 * 1000;
#X obj 178 120 *~;
#X obj 470 -70 phasor~ 350;
#X obj 470 -41 *~ 2;
#X obj 470 -12 -~ 1;
#X obj 575 -41 *~ 2;
#X obj 575 -12 -~ 1;
#X obj 575 -70 phasor~ 800;
#X obj 470 17 +~;
#X obj 629 -7 noise~;
#X obj 629 22 /~ 4;
#X obj 470 46 +~;
#X obj 663 -75 hsl 128 15 1 10 0 0 empty empty empty -2 -8 0 10 #fcfcfc #000000 #000000 0 1;
#X floatatom 705 -44 5 0 0 0 - - - 0;
#X obj 638 33 hsl 128 15 1 16 0 0 empty empty empty -2 -8 0 10 #fcfcfc #000000 #000000 0 1;
#X floatatom 663 63 5 0 0 0 - - - 0;
#X obj 636 89 hsl 128 15 1 6000 0 0 empty empty empty -2 -8 0 10 #fcfcfc #000000 #000000 0 1;
#X floatatom 645 96 5 0 0 0 - - - 0;
#X obj 470 75 bp~ 0 4;
#X obj 156 -15 *~ 22;
#X obj 466 -205 hradio 15 1 0 8 empty empty empty 0 -8 0 10 #fcfcfc #000000 #000000 0;
#X obj 486 -140 * 10;
#X floatatom 521 -105 5 0 0 0 - - - 0;
#X obj 566 -175 hsl 128 15 10 20 0 0 empty empty empty -2 -8 0 10 #fcfcfc #000000 #000000 0 1;
#X obj 511 -180 bng 15 250 50 0 empty empty empty 17 7 0 10 #fcfcfc #000000 #000000;
#X obj 285 305 vsl 15 128 0 0.9 0 0 empty empty empty 0 -9 0 10 #fcfcfc #000000 #000000 0 1;
#X obj 195 310 *~ 0.5, f 9;
#X obj 34 -239 inlet;
#X floatatom 317 -88 5 0 0 0 - - - 0;
#X obj 115 425 outlet~;
#X connect 0 0 1 0;
#X connect 1 0 2 0;
#X connect 2 0 6 0;
#X connect 4 0 5 0;
#X connect 5 0 7 0;
#X connect 6 0 32 0;
#X connect 7 0 14 0;
#X connect 7 0 39 0;
#X connect 10 0 32 1;
#X connect 10 0 41 0;
#X connect 11 0 12 0;
#X connect 12 0 13 0;
#X connect 13 0 7 1;
#X connect 14 0 39 0;
#X connect 15 0 16 0;
#X connect 16 0 17 0;
#X connect 17 0 21 0;
#X connect 18 0 19 0;
#X connect 19 0 21 1;
#X connect 20 0 18 0;
#X connect 21 0 24 0;
#X connect 22 0 23 0;
#X connect 23 0 24 1;
#X connect 24 0 31 0;
#X connect 25 0 26 0;
#X connect 26 0 23 1;
#X connect 27 0 28 0;
#X connect 28 0 31 2;
#X connect 29 0 30 0;
#X connect 30 0 31 1;
#X connect 31 0 14 1;
#X connect 32 0 4 0;
#X connect 33 0 34 0;
#X connect 34 0 35 0;
#X connect 35 0 10 0;
#X connect 36 0 34 1;
#X connect 36 0 37 0;
#X connect 37 0 33 0;
#X connect 38 0 39 1;
#X connect 39 0 42 0;
#X connect 40 0 0 0;
#X restore 105 330 pd decentKick;
#N canvas 0 0 450 300 decentSnare 0;
#X obj 176 -526 bng 24 250 50 0 empty empty empty 17 7 0 10 #00fc04 #000000 #000000;
#X obj 176 -497 t b b;
#X msg 176 -468 1 \, 0 100;
#X obj 176 -439 line~;
#X obj 176 -410 pow~ 4;
#X obj 176 -381 *~;
#X obj 341 -439 line~;
#X obj 341 -410 pow~ 4;
#X obj 341 -381 *~;
#X obj 445 -463 noise~;
#X msg 341 -468 1 \, 0 200;
#X obj 176 -352 +~;
#X obj 445 -434 hip~ 3000;
#X obj 445 -405 bp~ 5000 2;
#X obj 176 -323 lop~ 4000;
#X obj 250 -405 osc~ 200;
#X text 445 -488 // SNARES;
#X text 250 -430 // DRUM;
#X text 191 -527 –– SNARE DRUM –––––––––––––––––––––;
#X obj 291 -561 hsl 128 15 0.01 8 0 0 empty empty empty -2 -8 0 10 #fcfcfc #000000 #000000 0 1;
#X obj 436 -561 hsl 128 15 0.01 8 0 0 empty empty empty -2 -8 0 10 #fcfcfc #000000 #000000 0 1;
#X obj 296 -316 hsl 128 15 0.01 4000 0 0 empty empty empty -2 -8 0 10 #fcfcfc #000000 #000000 0 1;
#X obj 454 -322 hsl 128 15 0.01 8000 0 0 empty empty empty -2 -8 0 10 #fcfcfc #000000 #000000 0 1;
#X obj 519 -411 hsl 128 15 0.01 5 0 0 empty empty empty -2 -8 0 10 #fcfcfc #000000 #000000 0 1;
#X obj 514 -447 hsl 128 15 0.01 8000 0 0 empty empty empty -2 -8 0 10 #fcfcfc #000000 #000000 0 1;
#X obj 304 -251 hsl 128 15 100 1000 0 0 empty empty empty -2 -8 0 10 #fcfcfc #000000 #000000 0 1;
#X obj 233 -287 vsl 15 128 0 0.9 0 0 empty empty empty 0 -9 0 10 #fcfcfc #000000 #000000 0 1;
#X obj 143 -282 *~ 0.5, f 9;
#X obj 92 -522 inlet;
#X obj 43 -187 outlet~;
#X connect 0 0 1 0;
#X connect 1 0 2 0;
#X connect 1 1 10 0;
#X connect 2 0 3 0;
#X connect 3 0 4 0;
#X connect 4 0 5 0;
#X connect 5 0 11 0;
#X connect 6 0 7 0;
#X connect 7 0 8 0;
#X connect 8 0 11 1;
#X connect 9 0 12 0;
#X connect 10 0 6 0;
#X connect 11 0 14 0;
#X connect 12 0 13 0;
#X connect 13 0 8 1;
#X connect 14 0 27 0;
#X connect 15 0 5 1;
#X connect 19 0 4 1;
#X connect 20 0 7 1;
#X connect 21 0 14 1;
#X connect 22 0 13 1;
#X connect 23 0 13 2;
#X connect 24 0 12 1;
#X connect 25 0 15 1;
#X connect 26 0 27 1;
#X connect 27 0 29 0;
#X connect 28 0 0 0;
#X restore 140 285 pd decentSnare;
#N canvas 0 0 1608 887 decentHihat 0;
#X obj 81 393 bng 24 250 50 0 empty empty empty 17 7 0 10 #00fc04 #000000 #000000;
#X obj 81 451 line~;
#X obj 81 480 pow~ 4;
#X obj 85 515 *~;
#X obj 210 490 hip~ 8000;
#X obj 208 456 hip~ 8000;
#X obj 210 280 phasor~ 350;
#X obj 208 311 *~ 2;
#X obj 208 340 -~ 1;
#X obj 328 311 *~ 2;
#X obj 328 340 -~ 1;
#X obj 328 282 phasor~ 800;
#X obj 208 369 +~;
#X obj 208 427 hip~ 8000;
#X obj 85 585 *~ 4;
#X obj 382 345 noise~;
#X obj 382 374 /~ 4;
#X msg 81 422 1 \, 0 100;
#X text 208 515 // 3-Pole Highpass;
#X obj 208 398 +~;
#X text 208 252 // DETUNED OSCILLATORS;
#X text 81 222 –– HIHAT –––––––––––––––––––––––––––;
#X obj 173 142 hsl 128 15 0 10 0 0 empty empty empty -2 -8 0 10 #fcfcfc #000000 #000000 0 1;
#X floatatom 173 167 5 0 0 0 - - - 0;
#X obj 241 175 hsl 128 15 0 100 0 0 empty empty empty -2 -8 0 10 #fcfcfc #000000 #000000 0 1;
#X floatatom 200 185 5 0 0 0 - - - 0;
#X obj 341 242 hsl 128 15 10 4000 0 0 empty empty empty -2 -8 0 10 #fcfcfc #000000 #000000 0 1;
#X floatatom 316 220 5 0 0 0 - - - 0;
#X obj 531 222 hsl 128 15 10 4000 0 0 empty empty empty -2 -8 0 10 #fcfcfc #000000 #000000 0 1;
#X floatatom 531 247 5 0 0 0 - - - 0;
#X obj 421 120 hsl 128 15 10 0.5 0 0 empty empty empty -2 -8 0 10 #fcfcfc #000000 #000000 0 1;
#X floatatom 411 145 5 0 0 0 - - - 0;
#X msg 321 445 6000;
#X msg 371 445 8000;
#X msg 431 445 10000;
#X obj 420 560 vsl 15 128 0 0.9 0 0 empty empty empty 0 -9 0 10 #fcfcfc #000000 #000000 0 1;
#X obj 50 255 inlet;
#X obj 330 565 *~ 0.9, f 9;
#X obj 460 545 loadbang;
#X msg 460 570 0.6;
#X obj 255 10 loadbang;
#X msg 255 35 4;
#X obj 391 28 loadbang;
#X msg 391 53 10;
#X obj 315 625 outlet~;
#X connect 0 0 17 0;
#X connect 1 0 2 0;
#X connect 2 0 3 0;
#X connect 3 0 14 0;
#X connect 4 0 3 1;
#X connect 5 0 4 0;
#X connect 6 0 7 0;
#X connect 7 0 8 0;
#X connect 8 0 12 0;
#X connect 9 0 10 0;
#X connect 10 0 12 1;
#X connect 11 0 9 0;
#X connect 12 0 19 0;
#X connect 13 0 5 0;
#X connect 14 0 37 0;
#X connect 15 0 16 0;
#X connect 16 0 19 1;
#X connect 17 0 1 0;
#X connect 19 0 13 0;
#X connect 22 0 23 0;
#X connect 23 0 2 1;
#X connect 24 0 25 0;
#X connect 25 0 14 1;
#X connect 26 0 27 0;
#X connect 27 0 6 1;
#X connect 28 0 29 0;
#X connect 29 0 11 1;
#X connect 30 0 31 0;
#X connect 31 0 16 1;
#X connect 32 0 5 1;
#X connect 32 0 4 1;
#X connect 32 0 13 1;
#X connect 33 0 13 1;
#X connect 33 0 5 1;
#X connect 33 0 4 1;
#X connect 34 0 13 1;
#X connect 34 0 5 1;
#X connect 34 0 4 1;
#X connect 35 0 37 1;
#X connect 36 0 0 0;
#X connect 37 0 44 0;
#X connect 38 0 39 0;
#X connect 39 0 35 0;
#X connect 40 0 41 0;
#X connect 41 0 22 0;
#X connect 41 0 30 0;
#X connect 42 0 43 0;
#X connect 43 0 24 0;
#X restore 175 245 pd decentHihat;
#X obj 140 205 bng 31 250 50 0 snareBangOut empty empty 17 7 0 10 #fcfcfc #ffff00 #000000;
#X obj 175 205 bng 31 250 50 0 hihatBangOut empty empty 17 7 0 10 #fcfcfc #00ff00 #000000;
#X obj 175 265 throw~ hihatOut;
#X obj 105 350 throw~ kickOut;
#X obj 140 305 throw~ snareOut;
#X obj 235 305 outlet~;
#X obj 195 350 outlet~;
#X obj 270 265 outlet~;
#X obj 109 103 inlet;
#X obj 161 102 inlet;
#X obj 223 109 inlet;
#X connect 0 0 1 0;
#X connect 1 0 7 0;
#X connect 1 0 10 0;
#X connect 2 0 8 0;
#X connect 2 0 9 0;
#X connect 3 0 6 0;
#X connect 3 0 11 0;
#X connect 4 0 2 0;
#X connect 5 0 3 0;
#X connect 12 0 0 0;
#X connect 13 0 4 0;
#X connect 14 0 5 0;
#X coords 0 -1 1 1 105 35 1 103 203;
