#N canvas 1127 130 1055 677 10;
#X obj 68 77 NIRtotal;
#X obj 71 642 *~ 0.1;
#X obj 71 664 hip~ 5;
#X obj 71 686 dac~;
#X text 272 637 monosodium glutamate;
#X obj 123 638 rev2~ 78 55 4500 10;
#X obj 139 50 pack;
#X obj 138 1 notein;
#X floatatom 176 26 5 0 0 1 transpose - - 0;
#X obj 140 27 +;
#X obj 68 2 bendin;
#X obj 331 9 inlet;
#X connect 0 0 1 0;
#X connect 0 0 5 0;
#X connect 1 0 2 0;
#X connect 2 0 3 0;
#X connect 2 0 3 1;
#X connect 5 0 3 0;
#X connect 5 1 3 1;
#X connect 6 0 0 1;
#X connect 7 0 9 0;
#X connect 7 1 6 1;
#X connect 8 0 9 1;
#X connect 9 0 6 0;
#X connect 10 0 0 0;
