#N canvas 101 35 1858 1042 10;
#N canvas 58 50 1858 1042 thisseq 0;
#X obj 74 209 vradio 15 1 0 4 empty empty empty 0 -8 0 10 -262144 -1
-1 1;
#X obj 89 209 vradio 15 1 0 4 empty empty empty 0 -8 0 10 -262144 -1
-1 3;
#X obj 104 209 vradio 15 1 0 4 empty empty empty 0 -8 0 10 -262144
-1 -1 3;
#X obj 119 209 vradio 15 1 0 4 empty empty empty 0 -8 0 10 -262144
-1 -1 3;
#X obj 134 209 vradio 15 1 0 4 empty empty empty 0 -8 0 10 -262144
-1 -1 3;
#X obj 149 209 vradio 15 1 0 4 empty empty empty 0 -8 0 10 -262144
-1 -1 0;
#X obj 164 209 vradio 15 1 0 4 empty empty empty 0 -8 0 10 -262144
-1 -1 3;
#X obj 179 209 vradio 15 1 0 4 empty empty empty 0 -8 0 10 -262144
-1 -1 3;
#X obj 197 211 vsl 15 60 0 127 0 0 empty empty slew 2 -9 0 10 -262144
-1 -1 2787 1;
#X obj 74 269 hradio 15 1 0 8 empty empty empty 0 -8 0 10 -262144 -1
-1 7;
#X obj 215 211 vsl 15 60 0 127 0 0 empty empty skew 0 68 0 10 -262144
-1 -1 2183 1;
#X obj 74 284 hradio 15 1 0 8 empty empty empty 0 -8 0 10 -262144 -1
-1 4;
#X obj 74 309 vradio 15 1 0 4 empty empty empty 0 -8 0 10 -262144 -1
-1 3;
#X obj 89 309 vradio 15 1 0 4 empty empty empty 0 -8 0 10 -262144 -1
-1 3;
#X obj 104 309 vradio 15 1 0 4 empty empty empty 0 -8 0 10 -262144
-1 -1 3;
#X obj 119 309 vradio 15 1 0 4 empty empty empty 0 -8 0 10 -262144
-1 -1 2;
#X obj 134 309 vradio 15 1 0 4 empty empty empty 0 -8 0 10 -262144
-1 -1 3;
#X obj 149 309 vradio 15 1 0 4 empty empty empty 0 -8 0 10 -262144
-1 -1 1;
#X obj 164 309 vradio 15 1 0 4 empty empty empty 0 -8 0 10 -262144
-1 -1 3;
#X obj 179 309 vradio 15 1 0 4 empty empty empty 0 -8 0 10 -262144
-1 -1 2;
#X obj 197 311 vsl 15 60 0 127 0 0 empty empty slew 2 -9 0 10 -262144
-1 -1 3391 1;
#X obj 74 369 hradio 15 1 0 8 empty empty empty 0 -8 0 10 -262144 -1
-1 7;
#X obj 215 311 vsl 15 60 0 127 0 0 empty empty skew 0 68 0 10 -262144
-1 -1 4785 1;
#X obj 74 384 hradio 15 1 0 8 empty empty empty 0 -8 0 10 -262144 -1
-1 1;
#X floatatom 233 229 5 0 2000 1 ms/step - -, f 5;
#X floatatom 233 329 5 0 2000 1 ms/step - -, f 5;
#X text 31 188 mute 0.5 1 2;
#X text 199 168 percentage;
#X obj 185 606 f;
#X obj 212 606 + 1;
#X obj 170 475 f;
#X obj 170 528 sel 1;
#X text 207 509 was last step ap;
#X msg 142 557 0;
#X obj 197 550 bang;
#X obj 125 439 del 500;
#X obj 186 642 t b f;
#X obj 170 508 <=;
#X text 221 178 bias step time up or down;
#X obj 213 665 sel 0 1 2 3 4 5 6 7;
#X obj 213 688 f;
#X obj 243 688 f;
#X obj 273 688 f;
#X obj 303 688 f;
#X obj 333 688 f;
#X obj 363 688 f;
#X obj 393 688 f;
#X obj 423 688 f;
#X obj 213 762 / 3;
#X msg 251 812 1 \$1;
#X obj 251 834 -;
#X obj 247 1032 *;
#X obj 199 905 t f f;
#X obj 199 926 abs;
#X obj 226 925 < 0;
#X obj 226 955 sel 1;
#X obj 253 981 bang;
#X obj 222 984 f;
#X obj 253 1005 f;
#X obj 198 883 f;
#X obj 213 786 t b f f;
#X msg 248 1057 1 \$1;
#X obj 248 1079 -;
#X obj 215 820 - 63;
#X obj 215 848 / 65;
#X obj 244 1112 * 500;
#X obj 124 1234 f;
#X obj 436 1110 f;
#X obj 453 1087 / 128;
#X obj 247 1137 t f f;
#X obj 406 1085 t f b;
#X obj 407 1109 *;
#X obj 562 1272 pack f f;
#X obj 508 775 f;
#X obj 549 960 sel 0 1 2 3;
#X msg 566 1010 2;
#X msg 601 1009 1;
#X msg 635 1005 0.5;
#X msg 671 1008 0;
#X obj 405 1134 t b f;
#X obj 213 710 t f f;
#X obj 253 710 t f f;
#X obj 293 710 t f f;
#X obj 333 710 t f f;
#X obj 373 710 t f f;
#X obj 413 710 t f f;
#X obj 453 710 t f f;
#X obj 493 710 t f f;
#X obj 129 415 loadbang;
#X obj 562 1302 outlet;
#X obj 775 606 f;
#X obj 802 606 + 1;
#X obj 760 475 f;
#X obj 760 528 sel 1;
#X text 797 509 was last step ap;
#X msg 732 557 0;
#X obj 787 550 bang;
#X obj 715 439 del 500;
#X obj 776 642 t b f;
#X obj 760 508 <=;
#X obj 803 665 sel 0 1 2 3 4 5 6 7;
#X obj 803 688 f;
#X obj 833 688 f;
#X obj 863 688 f;
#X obj 893 688 f;
#X obj 923 688 f;
#X obj 953 688 f;
#X obj 983 688 f;
#X obj 1013 688 f;
#X obj 803 762 / 3;
#X msg 841 812 1 \$1;
#X obj 841 834 -;
#X obj 837 1032 *;
#X obj 789 905 t f f;
#X obj 789 926 abs;
#X obj 816 925 < 0;
#X obj 816 955 sel 1;
#X obj 843 981 bang;
#X obj 812 984 f;
#X obj 843 1005 f;
#X obj 788 883 f;
#X obj 803 786 t b f f;
#X msg 838 1057 1 \$1;
#X obj 838 1079 -;
#X obj 805 820 - 63;
#X obj 805 848 / 65;
#X obj 834 1112 * 500;
#X obj 714 1234 f;
#X obj 1026 1110 f;
#X obj 1043 1087 / 128;
#X obj 837 1137 t f f;
#X obj 996 1085 t f b;
#X obj 997 1109 *;
#X obj 1152 1272 pack f f;
#X obj 1098 775 f;
#X obj 1139 960 sel 0 1 2 3;
#X msg 1156 1010 2;
#X msg 1191 1009 1;
#X msg 1225 1005 0.5;
#X msg 1261 1008 0;
#X obj 995 1134 t b f;
#X obj 803 710 t f f;
#X obj 843 710 t f f;
#X obj 883 710 t f f;
#X obj 923 710 t f f;
#X obj 963 710 t f f;
#X obj 1003 710 t f f;
#X obj 1043 710 t f f;
#X obj 1083 710 t f f;
#X obj 719 415 loadbang;
#X obj 1152 1302 outlet;
#X obj 531 363 spigot;
#X obj 249 279 tgl 15 0 empty empty retrig 17 7 0 10 -262144 -1 -1
0 1;
#X obj 1235 1086 t f f;
#X obj 642 1091 t f f;
#X obj 301 39 r \$0-sq1slew;
#X obj 315 62 r \$0-sq1skew;
#X obj 335 79 r \$0-sq1ms;
#X obj 431 39 r \$0-sqretrig;
#X obj 434 92 r \$0-sq2slew;
#X obj 448 115 r \$0-sq2skew;
#X obj 468 132 r \$0-sq2ms;
#X obj 144 45 r \$0-sq21;
#X obj 23 30 r \$0-sq11;
#X obj 33 40 r \$0-sq12;
#X obj 43 50 r \$0-sq13;
#X obj 53 60 r \$0-sq14;
#X obj 63 70 r \$0-sq15;
#X obj 73 80 r \$0-sq16;
#X obj 83 90 r \$0-sq17;
#X obj 93 100 r \$0-sq18;
#X obj 154 55 r \$0-sq22;
#X obj 164 65 r \$0-sq23;
#X obj 174 75 r \$0-sq24;
#X obj 184 85 r \$0-sq25;
#X obj 194 95 r \$0-sq26;
#X obj 204 105 r \$0-sq27;
#X obj 214 115 r \$0-sq28;
#X obj 345 99 r \$0-sq1aptr;
#X obj 478 152 r \$0-sq2aptr;
#X floatatom 412 286 5 0 0 0 - - -, f 5;
#X floatatom 454 284 5 0 0 0 - - -, f 5;
#X floatatom 424 377 5 0 0 0 - - -, f 5;
#X floatatom 462 372 5 0 0 0 - - -, f 5;
#X obj 312 147 bng 15 250 50 0 empty empty empty 17 7 0 10 -262144
-1 -1;
#X obj 32 446 s \$0-tipped;
#X obj 32 389 bang;
#X msg 32 427 0;
#X obj 32 408 del 50;
#X obj 685 52 inlet;
#X obj 684 72 bang;
#X obj 850 57 inlet;
#X obj 338 975 *;
#X obj 306 951 t f f;
#X obj 319 1041 +;
#X obj 324 859 t b f;
#X obj 306 927 f;
#X obj 940 974 *;
#X obj 908 950 t f f;
#X obj 921 1040 +;
#X obj 926 858 t b f;
#X obj 908 926 f;
#X connect 0 0 40 1;
#X connect 0 0 186 0;
#X connect 1 0 41 1;
#X connect 1 0 186 0;
#X connect 2 0 42 1;
#X connect 2 0 186 0;
#X connect 3 0 43 1;
#X connect 3 0 186 0;
#X connect 4 0 44 1;
#X connect 4 0 186 0;
#X connect 5 0 45 1;
#X connect 5 0 186 0;
#X connect 6 0 46 1;
#X connect 6 0 186 0;
#X connect 7 0 47 1;
#X connect 7 0 186 0;
#X connect 8 0 68 0;
#X connect 8 0 180 0;
#X connect 8 0 186 0;
#X connect 9 0 30 1;
#X connect 9 0 186 0;
#X connect 10 0 63 0;
#X connect 10 0 181 0;
#X connect 10 0 186 0;
#X connect 12 0 101 1;
#X connect 12 0 186 0;
#X connect 13 0 102 1;
#X connect 13 0 186 0;
#X connect 14 0 103 1;
#X connect 14 0 186 0;
#X connect 15 0 104 1;
#X connect 15 0 186 0;
#X connect 16 0 105 1;
#X connect 16 0 186 0;
#X connect 17 0 106 1;
#X connect 17 0 186 0;
#X connect 18 0 107 1;
#X connect 18 0 186 0;
#X connect 19 0 108 1;
#X connect 19 0 186 0;
#X connect 20 0 129 0;
#X connect 20 0 182 0;
#X connect 20 0 186 0;
#X connect 21 0 92 1;
#X connect 21 0 186 0;
#X connect 22 0 124 0;
#X connect 22 0 183 0;
#X connect 22 0 186 0;
#X connect 24 0 186 0;
#X connect 24 0 196 0;
#X connect 25 0 186 0;
#X connect 25 0 201 0;
#X connect 28 0 29 0;
#X connect 28 0 36 0;
#X connect 28 0 37 1;
#X connect 29 0 28 1;
#X connect 30 0 37 0;
#X connect 31 0 33 0;
#X connect 31 1 34 0;
#X connect 33 0 28 0;
#X connect 33 0 151 0;
#X connect 34 0 28 0;
#X connect 35 0 30 0;
#X connect 36 0 66 0;
#X connect 36 1 39 0;
#X connect 36 1 11 0;
#X connect 37 0 31 0;
#X connect 39 0 40 0;
#X connect 39 1 41 0;
#X connect 39 2 42 0;
#X connect 39 3 43 0;
#X connect 39 4 44 0;
#X connect 39 5 45 0;
#X connect 39 6 46 0;
#X connect 39 7 47 0;
#X connect 40 0 80 0;
#X connect 41 0 81 0;
#X connect 42 0 82 0;
#X connect 43 0 83 0;
#X connect 44 0 84 0;
#X connect 45 0 85 0;
#X connect 46 0 86 0;
#X connect 47 0 87 0;
#X connect 48 0 60 0;
#X connect 49 0 50 0;
#X connect 50 0 58 1;
#X connect 51 0 61 0;
#X connect 52 0 53 0;
#X connect 52 1 54 0;
#X connect 53 0 51 1;
#X connect 54 0 55 0;
#X connect 55 0 57 0;
#X connect 55 1 56 0;
#X connect 56 0 58 0;
#X connect 57 0 51 0;
#X connect 58 0 51 0;
#X connect 59 0 52 0;
#X connect 60 0 59 0;
#X connect 60 1 57 1;
#X connect 60 2 49 0;
#X connect 61 0 62 0;
#X connect 62 0 65 0;
#X connect 63 0 64 0;
#X connect 64 0 59 1;
#X connect 65 0 69 0;
#X connect 66 0 35 0;
#X connect 67 0 71 1;
#X connect 68 0 67 1;
#X connect 69 0 66 1;
#X connect 69 1 70 0;
#X connect 70 0 71 0;
#X connect 70 1 67 0;
#X connect 71 0 79 0;
#X connect 72 0 89 0;
#X connect 73 0 74 0;
#X connect 74 0 75 0;
#X connect 74 1 76 0;
#X connect 74 2 77 0;
#X connect 74 3 78 0;
#X connect 75 0 72 0;
#X connect 76 0 72 0;
#X connect 77 0 72 0;
#X connect 78 0 154 0;
#X connect 79 0 73 0;
#X connect 79 1 72 1;
#X connect 80 0 48 0;
#X connect 80 1 73 1;
#X connect 81 0 48 0;
#X connect 81 1 73 1;
#X connect 82 0 48 0;
#X connect 82 1 73 1;
#X connect 83 0 48 0;
#X connect 83 1 73 1;
#X connect 84 0 48 0;
#X connect 84 1 73 1;
#X connect 85 0 48 0;
#X connect 85 1 73 1;
#X connect 86 0 48 0;
#X connect 86 1 73 1;
#X connect 87 0 48 0;
#X connect 87 1 73 1;
#X connect 88 0 35 0;
#X connect 90 0 91 0;
#X connect 90 0 98 0;
#X connect 90 0 99 1;
#X connect 91 0 90 1;
#X connect 92 0 99 0;
#X connect 93 0 95 0;
#X connect 93 1 96 0;
#X connect 95 0 90 0;
#X connect 96 0 90 0;
#X connect 97 0 92 0;
#X connect 98 0 127 0;
#X connect 98 1 100 0;
#X connect 98 1 23 0;
#X connect 99 0 93 0;
#X connect 100 0 101 0;
#X connect 100 1 102 0;
#X connect 100 2 103 0;
#X connect 100 3 104 0;
#X connect 100 4 105 0;
#X connect 100 5 106 0;
#X connect 100 6 107 0;
#X connect 100 7 108 0;
#X connect 101 0 141 0;
#X connect 102 0 142 0;
#X connect 103 0 143 0;
#X connect 104 0 144 0;
#X connect 105 0 145 0;
#X connect 106 0 146 0;
#X connect 107 0 147 0;
#X connect 108 0 148 0;
#X connect 109 0 121 0;
#X connect 110 0 111 0;
#X connect 111 0 119 1;
#X connect 112 0 122 0;
#X connect 113 0 114 0;
#X connect 113 1 115 0;
#X connect 114 0 112 1;
#X connect 115 0 116 0;
#X connect 116 0 118 0;
#X connect 116 1 117 0;
#X connect 117 0 119 0;
#X connect 118 0 112 0;
#X connect 119 0 112 0;
#X connect 120 0 113 0;
#X connect 121 0 120 0;
#X connect 121 1 118 1;
#X connect 121 2 110 0;
#X connect 122 0 123 0;
#X connect 123 0 126 0;
#X connect 124 0 125 0;
#X connect 125 0 120 1;
#X connect 126 0 130 0;
#X connect 127 0 97 0;
#X connect 128 0 132 1;
#X connect 129 0 128 1;
#X connect 130 0 127 1;
#X connect 130 1 131 0;
#X connect 131 0 132 0;
#X connect 131 1 128 0;
#X connect 132 0 140 0;
#X connect 133 0 150 0;
#X connect 134 0 135 0;
#X connect 135 0 136 0;
#X connect 135 1 137 0;
#X connect 135 2 138 0;
#X connect 135 3 139 0;
#X connect 136 0 133 0;
#X connect 137 0 133 0;
#X connect 138 0 133 0;
#X connect 139 0 153 0;
#X connect 140 0 134 0;
#X connect 140 1 133 1;
#X connect 141 0 109 0;
#X connect 141 1 134 1;
#X connect 142 0 109 0;
#X connect 142 1 134 1;
#X connect 143 0 109 0;
#X connect 143 1 134 1;
#X connect 144 0 109 0;
#X connect 144 1 134 1;
#X connect 145 0 109 0;
#X connect 145 1 134 1;
#X connect 146 0 109 0;
#X connect 146 1 134 1;
#X connect 147 0 109 0;
#X connect 147 1 134 1;
#X connect 148 0 109 0;
#X connect 148 1 134 1;
#X connect 149 0 97 0;
#X connect 151 0 95 0;
#X connect 152 0 151 1;
#X connect 152 0 186 0;
#X connect 153 0 133 0;
#X connect 153 1 133 1;
#X connect 154 0 72 0;
#X connect 154 1 72 1;
#X connect 155 0 8 0;
#X connect 156 0 10 0;
#X connect 157 0 24 0;
#X connect 158 0 152 0;
#X connect 159 0 20 0;
#X connect 160 0 22 0;
#X connect 161 0 25 0;
#X connect 162 0 12 0;
#X connect 163 0 0 0;
#X connect 164 0 1 0;
#X connect 165 0 2 0;
#X connect 166 0 3 0;
#X connect 167 0 4 0;
#X connect 168 0 5 0;
#X connect 169 0 6 0;
#X connect 170 0 7 0;
#X connect 171 0 13 0;
#X connect 172 0 14 0;
#X connect 173 0 15 0;
#X connect 174 0 16 0;
#X connect 175 0 17 0;
#X connect 176 0 18 0;
#X connect 177 0 19 0;
#X connect 178 0 9 0;
#X connect 179 0 21 0;
#X connect 184 0 8 0;
#X connect 184 0 10 0;
#X connect 184 0 20 0;
#X connect 184 0 22 0;
#X connect 186 0 188 0;
#X connect 187 0 185 0;
#X connect 188 0 187 0;
#X connect 189 0 190 0;
#X connect 190 0 33 0;
#X connect 191 0 195 0;
#X connect 191 0 200 0;
#X connect 192 0 194 1;
#X connect 193 0 194 0;
#X connect 193 1 192 0;
#X connect 194 0 65 1;
#X connect 195 0 196 0;
#X connect 195 1 192 1;
#X connect 196 0 193 0;
#X connect 197 0 199 1;
#X connect 198 0 199 0;
#X connect 198 1 197 0;
#X connect 199 0 126 1;
#X connect 200 0 201 0;
#X connect 200 1 197 1;
#X connect 201 0 198 0;
#X coords 0 -1 1 1 255 210 2 68 195;
#X restore 526 364 pd thisseq;
#N canvas 261 113 955 843 melodynote 0;
#X obj 192 43 vradio 15 1 0 3 empty empty empty 0 -8 0 10 -262144 -1
-1 1;
#X obj 29 91 notehighlow;
#X floatatom 345 43 5 0 127 0 - - -, f 5;
#X floatatom 387 43 5 0 127 0 - - -, f 5;
#X obj 622 403 *;
#X obj 622 372 -;
#X obj 622 433 +;
#X obj 689 353 / 127;
#X obj 630 328 t b f f;
#X obj 689 310 ctlin 1;
#X obj 689 373 t b f;
#X obj 622 454 i;
#X obj 208 43 cnv 15 10 10 empty empty mod_wheel_-_range 6 6 0 10 -233017
-66577 0;
#X obj 208 58 cnv 15 10 10 empty empty note_high 6 6 0 10 -233017 -66577
0;
#X obj 208 73 cnv 15 10 10 empty empty note_low 6 6 0 10 -233017 -66577
0;
#X obj 29 69 pack;
#X obj 74 403 spigot;
#X obj 138 415 spigot;
#X obj 624 563 spigot;
#X obj 353 343 == 0;
#X obj 263 702 outlet;
#X obj 247 142 t f f;
#X obj 224 168 sel 0;
#X obj 318 703 outlet;
#X obj 68 455 t f b;
#X obj 143 457 t f b;
#X obj 485 13 r \$0-melomode;
#X obj 504 33 r \$0-meloMWlow;
#X obj 517 50 r \$0-meloMWhigh;
#X obj 28 37 unpack;
#X obj 28 11 inlet;
#X obj 212 298 == 1;
#X obj 220 333 == 2;
#X obj 565 563 spigot;
#X obj 493 528 bang;
#X connect 0 0 21 0;
#X connect 1 0 17 0;
#X connect 1 1 16 0;
#X connect 2 0 8 0;
#X connect 3 0 5 0;
#X connect 4 0 6 0;
#X connect 5 0 4 0;
#X connect 6 0 11 0;
#X connect 7 0 10 0;
#X connect 8 0 5 0;
#X connect 8 1 5 1;
#X connect 8 2 6 1;
#X connect 9 0 7 0;
#X connect 10 0 4 0;
#X connect 10 1 4 1;
#X connect 11 0 18 0;
#X connect 15 0 1 0;
#X connect 16 0 24 0;
#X connect 17 0 25 0;
#X connect 18 0 20 0;
#X connect 19 0 18 1;
#X connect 19 0 33 1;
#X connect 21 0 22 0;
#X connect 21 1 19 0;
#X connect 21 1 31 0;
#X connect 21 1 32 0;
#X connect 22 0 11 0;
#X connect 24 0 20 0;
#X connect 24 1 23 0;
#X connect 25 0 20 0;
#X connect 25 1 23 0;
#X connect 26 0 0 0;
#X connect 27 0 2 0;
#X connect 28 0 3 0;
#X connect 29 0 15 0;
#X connect 29 1 15 1;
#X connect 29 1 34 0;
#X connect 30 0 29 0;
#X connect 31 0 16 1;
#X connect 32 0 17 1;
#X connect 33 0 23 0;
#X connect 34 0 33 0;
#X coords 0 -1 1 1 255 70 1 190 20;
#X restore 526 93 pd melodynote;
#N canvas 316 199 586 483 pitchlimit 0;
#X obj 136 228 mtof;
#X obj 67 131 + 24;
#X obj 309 208 tgl 15 0 empty empty follow_pitch 17 7 0 10 -262144
-1 -1 1 1;
#X floatatom 309 242 5 -48 48 2 semitone_offset - -, f 5;
#X text 159 51 offset;
#X obj 68 100 spigot;
#X obj 117 133 sel 0;
#X obj 89 198 f;
#X obj 138 202 spigot;
#X obj 116 107 t f f;
#X obj 164 121 == 0;
#X obj 55 25 inlet;
#X obj 133 283 outlet;
#X obj 270 134 vsl 15 128 0 127 0 0 empty empty static_limit 2 12 0
10 -261682 -1 -1 11500 1;
#X text 308 186 OR:;
#X obj 312 33 r \$0-static;
#X obj 330 56 r \$0-follow;
#X obj 342 79 r \$0-limitsemi;
#X floatatom 284 286 5 0 0 0 - - -, f 5;
#X obj 226 398 s \$0-tipped;
#X obj 226 341 bang;
#X obj 226 360 del 50;
#X msg 226 379 1;
#X connect 0 0 12 0;
#X connect 1 0 0 0;
#X connect 2 0 5 1;
#X connect 2 0 9 0;
#X connect 2 0 20 0;
#X connect 3 0 1 1;
#X connect 3 0 20 0;
#X connect 5 0 1 0;
#X connect 6 0 7 0;
#X connect 7 0 8 0;
#X connect 8 0 0 0;
#X connect 9 0 6 0;
#X connect 9 1 10 0;
#X connect 10 0 8 1;
#X connect 11 0 5 0;
#X connect 13 0 7 0;
#X connect 13 0 18 0;
#X connect 13 0 20 0;
#X connect 15 0 13 0;
#X connect 16 0 2 0;
#X connect 17 0 3 0;
#X connect 20 0 21 0;
#X connect 21 0 22 0;
#X connect 22 0 19 0;
#X coords 0 -1 1 1 140 180 1 260 100;
#X restore 374 172 pd pitchlimit;
#X obj 821 121 hradio 30 1 0 5 empty empty Preset 0 -8 0 15 -261682
-1 -4160 2;
#N canvas 104 57 1285 781 noises 0;
#N canvas 771 348 715 453 toner 0;
#X obj 423 13 block~ 1;
#X obj 72 408 outlet~;
#X obj 331 18 loadbang;
#X obj 331 40 samplerate~;
#X msg 331 62 1000 \$1;
#X obj 331 83 /;
#X obj 331 104 sig~;
#X obj 299 179 *~;
#X obj 181 2 inlet;
#X obj 181 32 * -1;
#X obj 181 78 sig~;
#X obj 221 4 inlet;
#X obj 221 32 * -1;
#X obj 221 78 sig~;
#X obj 329 191 *~;
#X obj 72 330 +~;
#X obj 121 276 cos~;
#X obj 71 2 inlet~;
#X obj 121 2 inlet~;
#X obj 72 170 phasor~;
#X obj 72 192 +~;
#X obj 72 214 cos~;
#X obj 120 193 phasor~;
#X obj 120 215 +~;
#X obj 120 237 cos~;
#X obj 120 83 +~;
#X obj 267 81 *~ 50;
#X obj 269 5 inlet;
#X obj 168 362 rzero~ -1;
#X obj 167 384 *~ 0.5;
#X obj 122 301 *~ 0.6;
#X obj 120 144 clip~ -2000 2000;
#X obj 71 121 clip~ -1000 1000;
#X obj 489 13 inlet;
#X obj 507 91 t f f f f;
#X obj 507 112 * -1;
#X obj 541 132 * -1;
#X obj 167 407 delwrite~ \$0-buddy 2;
#X obj 330 148 vd~ \$0-buddy 1;
#X connect 2 0 3 0;
#X connect 3 0 4 0;
#X connect 4 0 5 0;
#X connect 5 0 6 0;
#X connect 6 0 38 0;
#X connect 7 0 20 1;
#X connect 8 0 9 0;
#X connect 9 0 10 0;
#X connect 10 0 7 1;
#X connect 11 0 12 0;
#X connect 12 0 13 0;
#X connect 13 0 14 1;
#X connect 14 0 23 1;
#X connect 15 0 1 0;
#X connect 15 0 28 0;
#X connect 16 0 30 0;
#X connect 17 0 32 0;
#X connect 18 0 25 0;
#X connect 19 0 20 0;
#X connect 20 0 21 0;
#X connect 21 0 15 0;
#X connect 22 0 23 0;
#X connect 23 0 24 0;
#X connect 24 0 16 0;
#X connect 25 0 31 0;
#X connect 26 0 25 1;
#X connect 27 0 26 1;
#X connect 28 0 29 0;
#X connect 29 0 37 0;
#X connect 30 0 15 1;
#X connect 31 0 22 0;
#X connect 32 0 19 0;
#X connect 33 0 34 0;
#X connect 34 0 35 0;
#X connect 34 1 32 2;
#X connect 34 2 36 0;
#X connect 34 3 31 2;
#X connect 35 0 32 1;
#X connect 36 0 31 1;
#X connect 38 0 7 0;
#X connect 38 0 14 0;
#X connect 38 0 26 0;
#X restore 147 380 pd toner;
#X obj 64 204 vline~;
#X obj 64 226 *~;
#X obj 114 204 vline~;
#X obj 114 226 *~;
#X obj 131 96 mtof;
#X msg 859 394 1 \$1;
#X obj 859 416 -;
#X obj 859 438 t f f;
#X obj 859 460 *;
#X msg 859 481 1 \$1;
#X obj 859 503 -;
#X obj 859 373 / 127;
#X obj 948 370 / 127;
#X obj 948 391 t f f;
#X obj 948 413 *;
#X obj 703 462 * 500;
#X obj 703 373 / 127;
#X obj 776 373 / 127;
#X obj 776 396 t f f;
#X obj 776 418 *;
#X obj 703 395 t f f;
#X obj 703 417 *;
#X obj 776 463 + 5;
#X obj 777 441 * 3995;
#X obj 520 454 * 500;
#X obj 550 80 vsl 15 128 0 127 0 0 empty empty attack 2 12 0 10 -262130
-1 -1 0 1;
#X obj 520 365 / 127;
#X obj 600 80 vsl 15 128 0 127 0 0 empty empty release 2 12 0 10 -262130
-1 -1 0 1;
#X obj 610 365 / 127;
#X obj 610 388 t f f;
#X obj 610 410 *;
#X obj 520 387 t f f;
#X obj 520 409 *;
#X obj 612 454 + 5;
#X obj 611 433 * 3995;
#X obj 933 98 tgl 15 0 empty empty invert 17 7 0 10 -262130 -1 -1 0
1;
#X obj 886 185 hsl 128 15 -99 99 0 0 empty empty allpass 36 8 0 10
-262130 -1 -1 8300 1;
#X floatatom 984 169 5 0 0 0 - - -, f 5;
#X obj 860 531 * 0.7;
#X obj 151 614 bob~;
#X obj 176 545 sig~;
#X obj 177 525 mtof;
#X obj 493 708 unpack;
#X obj 152 686 *~;
#X obj 241 658 sig~;
#X obj 242 638 / 127;
#X obj 502 607 poly 8 0;
#X obj 540 715 unpack;
#X obj 586 724 unpack;
#X obj 633 735 unpack;
#X obj 682 745 unpack;
#X obj 729 756 unpack;
#X obj 775 765 unpack;
#X obj 822 776 unpack;
#X obj 499 656 pack f f f;
#X obj 499 677 route 1 2 3 4 5 6 7 8;
#X obj 1187 789 lop~ 5;
#X obj 1187 769 sig~;
#X obj 147 403 hip~ 5;
#X obj 381 80 vsl 15 128 0 127 0 0 empty empty detune 2 12 0 10 -261682
-1 -1 4400 1;
#X obj 448 472 / 64;
#X obj 448 450 - 64;
#X floatatom 397 98 5 0 0 0 - - -, f 5;
#X obj 462 410 > 64;
#X obj 448 430 +;
#X obj 437 388 t f f;
#X obj 423 632 * 200;
#X obj 255 79 vsl 15 128 0 127 0 0 empty empty depth1 2 12 0 10 -261682
-1 -1 9700 1;
#X obj 326 474 / 64;
#X obj 326 452 - 64;
#X floatatom 271 98 5 0 0 0 - - -, f 5;
#X obj 340 412 > 64;
#X obj 326 432 +;
#X obj 315 390 t f f;
#X obj 305 80 vsl 15 128 0 127 0 0 empty empty depth2 2 12 0 10 -261682
-1 -1 9700 1;
#X obj 376 474 / 64;
#X obj 376 452 - 64;
#X floatatom 321 98 5 0 0 0 - - -, f 5;
#X obj 390 412 > 64;
#X obj 376 432 +;
#X obj 365 390 t f f;
#X obj 500 585 unpack;
#X obj 41 17 inlet;
#X obj 83 18 inlet;
#X obj 130 18 inlet;
#X obj 172 19 inlet;
#X obj 787 907 outlet~;
#X obj 494 68 vsl 15 128 0 127 0 0 empty empty amp 2 24 0 10 -261682
-1 -1 8900 1;
#X obj 463 68 vsl 15 128 0 127 0 0 empty empty damp 2 12 0 10 -261682
-1 -1 8300 1;
#X obj 570 430 i;
#X floatatom 566 98 5 0 0 0 - - -, f 5;
#X obj 670 440 i;
#X floatatom 616 98 5 0 0 0 - - -, f 5;
#X obj 550 59 cnv 15 60 10 empty empty gate 20 12 0 14 -233017 -66577
0;
#X obj 680 80 vsl 15 128 0 127 0 0 empty empty attack 2 12 0 10 -262130
-1 -1 11300 1;
#X obj 730 80 vsl 15 128 0 127 0 0 empty empty release 2 12 0 10 -262130
-1 -1 0 1;
#X floatatom 696 98 5 0 0 0 - - -, f 5;
#X floatatom 746 98 5 0 0 0 - - -, f 5;
#X obj 732 491 i;
#X obj 786 493 i;
#X obj 680 59 cnv 15 60 10 empty empty feedback_env 20 12 0 14 -233017
-66577 0;
#X obj 810 80 vsl 15 128 0 127 0 0 empty empty feedback 2 12 0 10 -262130
-1 -1 7400 1;
#X floatatom 826 98 5 0 0 0 - - -, f 5;
#X obj 921 504 i;
#X obj 860 80 vsl 15 128 0 127 0 0 empty empty push 2 12 0 10 -262130
-1 -1 1700 1;
#X floatatom 876 98 5 0 0 0 - - -, f 5;
#X obj 994 454 i;
#X obj 933 166 bng 15 250 50 0 empty empty empty 17 7 0 10 -262130
-1 -1;
#X msg 1027 318 0;
#X obj 860 59 cnv 15 60 10 empty empty resonator_tone 20 12 0 14 -233017
-66577 0;
#X obj 326 495 * 0.3;
#X obj 376 495 * 0.3;
#X obj 414 135 bng 15 250 50 0 empty empty empty 17 7 0 10 -261682
-1 -1;
#X msg 415 58 64;
#X obj 461 523 < 0;
#X obj 422 496 t f f f;
#X obj 461 544 * 2;
#X msg 461 563 1 \$1;
#X obj 461 585 -;
#X obj 420 607 *;
#X obj 421 520 *;
#X obj 415 550 t f f;
#X obj 415 571 *;
#X obj 539 494 s \$0-gateatk;
#X obj 631 494 s \$0-gaterel;
#X obj 698 665 s \$0-fbatk;
#X obj 773 665 s \$0-fbrel;
#X obj 902 657 s \$0-basefb;
#X obj 995 646 s \$0-pushfb;
#X obj 1049 607 s \$0-ap;
#X obj 1118 666 s \$0-negate;
#X obj 250 6 r \$0-tonedep1;
#X obj 284 24 r \$0-tonedep2;
#X obj 369 5 r \$0-tonedetune;
#X obj 479 4 r \$0-tonedamp;
#X obj 513 22 r \$0-toneamp;
#X obj 614 8 r \$0-ctgateatk;
#X obj 624 18 r \$0-ctgaterel;
#X obj 708 7 r \$0-ctfbatk;
#X obj 718 17 r \$0-ctfbrel;
#X obj 804 8 r \$0-ctfb;
#X obj 814 18 r \$0-ctfbpush;
#X obj 887 7 r \$0-ctfbinvert;
#X obj 969 17 r \$0-ctap;
#X obj 42 537 loadbang;
#X msg 42 557 saturation 1;
#X obj 129 143 lop~ 8;
#X obj 130 120 sig~;
#X obj 920 478 * 100;
#X obj 998 432 * 100;
#X floatatom 295 223 5 0 0 0 - - -, f 5;
#X floatatom 239 227 5 0 0 0 - - -, f 5;
#X floatatom 452 225 5 0 0 0 - - -, f 5;
#X floatatom 376 223 5 0 0 0 - - -, f 5;
#X floatatom 499 227 5 0 0 0 - - -, f 5;
#X floatatom 604 224 5 0 0 0 - - -, f 5;
#X floatatom 547 223 5 0 0 0 - - -, f 5;
#X floatatom 761 226 5 0 0 0 - - -, f 5;
#X floatatom 685 224 5 0 0 0 - - -, f 5;
#X floatatom 806 223 5 0 0 0 - - -, f 5;
#X floatatom 849 222 5 0 0 0 - - -, f 5;
#X floatatom 1043 157 5 0 0 0 - - -, f 5;
#X floatatom 1044 204 5 0 0 0 - - -, f 5;
#X obj 276 310 s \$0-tipped;
#X obj 276 253 bang;
#X obj 276 272 del 50;
#X msg 276 291 2;
#X obj 400 312 s \$0-tipped;
#X obj 400 255 bang;
#X obj 400 274 del 50;
#X msg 400 293 3;
#X obj 525 314 s \$0-tipped;
#X obj 525 257 bang;
#X obj 525 276 del 50;
#X obj 609 316 s \$0-tipped;
#X obj 609 259 bang;
#X obj 609 278 del 50;
#X msg 525 295 4;
#X msg 609 297 5;
#X obj 692 319 s \$0-tipped;
#X obj 692 262 bang;
#X obj 692 281 del 50;
#X obj 896 321 s \$0-tipped;
#X obj 896 264 bang;
#X obj 896 283 del 50;
#X msg 692 300 6;
#X msg 896 302 7;
#X obj 495 833 noinresvoice \$0;
#X obj 1152 349 + 99;
#X obj 1189 547 * 10;
#X obj 1152 372 / 193;
#X obj 1155 450 pow 6;
#X obj 1210 358 + 11;
#X obj 1198 400 t b f;
#X obj 1213 334 * -8;
#X obj 1058 16 r \$0-cttune;
#X obj 886 145 hsl 128 15 -1 1 0 0 empty empty tuning 36 8 0 10 -262130
-1 -1 6350 1;
#X obj 933 126 bng 15 250 50 0 empty empty empty 17 7 0 10 -262130
-1 -1;
#X msg 1068 317 0;
#X obj 1209 27 inlet;
#X text 1205 50 midi;
#X obj 352 708 *~ 1;
#X obj 328 132 tgl 15 0 empty empty focus 17 7 0 10 -262144 -1 -1 1
1;
#X obj 247 478 * 2;
#X msg 247 500 1 \$1;
#X obj 247 522 -;
#X obj 1104 856 noinresvoice \$0;
#X obj 983 852 noinresvoice \$0;
#X obj 226 823 noinresvoice \$0;
#X obj 357 831 noinresvoice \$0;
#X obj 619 841 noinresvoice \$0;
#X obj 731 844 noinresvoice \$0;
#X obj 861 848 noinresvoice \$0;
#X obj 1243 811 lop~ 5;
#X obj 1243 791 sig~;
#X obj 181 584 sig~ 2.3;
#X obj 25 446 vcf~;
#X obj 34 396 sig~ 7000;
#X obj 24 467 *~ -1;
#X obj 38 348 samplerate~;
#X obj 38 372 / 5;
#X obj 43 308 loadbang;
#X msg 59 421 30;
#X connect 0 0 59 0;
#X connect 1 0 2 0;
#X connect 2 0 0 0;
#X connect 3 0 4 0;
#X connect 4 0 0 1;
#X connect 5 0 148 0;
#X connect 6 0 7 0;
#X connect 7 0 8 0;
#X connect 8 0 9 0;
#X connect 8 1 9 1;
#X connect 9 0 10 0;
#X connect 10 0 11 0;
#X connect 11 0 39 0;
#X connect 11 0 149 0;
#X connect 12 0 6 0;
#X connect 13 0 14 0;
#X connect 14 0 15 0;
#X connect 14 1 15 1;
#X connect 15 0 129 0;
#X connect 15 0 150 0;
#X connect 16 0 99 0;
#X connect 16 0 126 0;
#X connect 17 0 21 0;
#X connect 18 0 19 0;
#X connect 19 0 20 0;
#X connect 19 1 20 1;
#X connect 20 0 24 0;
#X connect 21 0 22 0;
#X connect 21 1 22 1;
#X connect 22 0 16 0;
#X connect 23 0 100 0;
#X connect 23 0 127 0;
#X connect 24 0 23 0;
#X connect 25 0 90 0;
#X connect 25 0 124 0;
#X connect 26 0 27 0;
#X connect 26 0 157 0;
#X connect 26 0 173 0;
#X connect 27 0 32 0;
#X connect 28 0 29 0;
#X connect 28 0 156 0;
#X connect 28 0 173 0;
#X connect 29 0 30 0;
#X connect 30 0 31 0;
#X connect 30 1 31 1;
#X connect 31 0 35 0;
#X connect 32 0 33 0;
#X connect 32 1 33 1;
#X connect 33 0 25 0;
#X connect 34 0 92 0;
#X connect 34 0 125 0;
#X connect 35 0 34 0;
#X connect 36 0 131 0;
#X connect 36 0 184 0;
#X connect 36 0 195 0;
#X connect 37 0 38 0;
#X connect 37 0 130 0;
#X connect 37 0 163 0;
#X connect 37 0 184 0;
#X connect 37 0 189 0;
#X connect 39 0 128 0;
#X connect 40 0 44 0;
#X connect 41 0 40 1;
#X connect 42 0 41 0;
#X connect 43 0 209 1;
#X connect 43 1 209 2;
#X connect 44 0 188 0;
#X connect 44 0 202 0;
#X connect 44 0 208 0;
#X connect 44 0 209 0;
#X connect 44 0 212 0;
#X connect 45 0 44 1;
#X connect 46 0 45 0;
#X connect 47 0 55 0;
#X connect 47 1 55 1;
#X connect 47 2 55 2;
#X connect 48 0 210 1;
#X connect 48 1 210 2;
#X connect 49 0 188 1;
#X connect 49 1 188 2;
#X connect 50 0 211 1;
#X connect 50 1 211 2;
#X connect 51 0 212 1;
#X connect 51 1 212 2;
#X connect 52 0 213 1;
#X connect 52 1 213 2;
#X connect 53 0 208 1;
#X connect 53 1 208 2;
#X connect 54 0 207 1;
#X connect 54 1 207 2;
#X connect 55 0 56 0;
#X connect 56 0 43 0;
#X connect 56 1 48 0;
#X connect 56 2 49 0;
#X connect 56 3 50 0;
#X connect 56 4 51 0;
#X connect 56 5 52 0;
#X connect 56 6 53 0;
#X connect 56 7 54 0;
#X connect 57 0 188 3;
#X connect 57 0 207 3;
#X connect 57 0 208 3;
#X connect 57 0 209 3;
#X connect 57 0 210 3;
#X connect 57 0 211 3;
#X connect 57 0 212 3;
#X connect 57 0 213 3;
#X connect 58 0 57 0;
#X connect 59 0 40 0;
#X connect 59 0 217 0;
#X connect 60 0 66 0;
#X connect 60 0 154 0;
#X connect 60 0 165 0;
#X connect 61 0 116 0;
#X connect 62 0 61 0;
#X connect 64 0 65 1;
#X connect 65 0 62 0;
#X connect 66 0 65 0;
#X connect 66 1 64 0;
#X connect 67 0 63 0;
#X connect 67 0 0 4;
#X connect 68 0 74 0;
#X connect 68 0 152 0;
#X connect 68 0 165 0;
#X connect 69 0 111 0;
#X connect 70 0 69 0;
#X connect 72 0 73 1;
#X connect 73 0 70 0;
#X connect 74 0 73 0;
#X connect 74 1 72 0;
#X connect 75 0 81 0;
#X connect 75 0 151 0;
#X connect 75 0 165 0;
#X connect 76 0 112 0;
#X connect 77 0 76 0;
#X connect 79 0 80 1;
#X connect 80 0 77 0;
#X connect 81 0 80 0;
#X connect 81 1 79 0;
#X connect 82 0 47 0;
#X connect 82 1 47 1;
#X connect 83 0 1 0;
#X connect 84 0 3 0;
#X connect 85 0 5 0;
#X connect 86 0 0 5;
#X connect 88 0 46 0;
#X connect 88 0 155 0;
#X connect 88 0 169 0;
#X connect 89 0 42 0;
#X connect 89 0 153 0;
#X connect 89 0 169 0;
#X connect 90 0 91 0;
#X connect 92 0 93 0;
#X connect 95 0 17 0;
#X connect 95 0 159 0;
#X connect 95 0 176 0;
#X connect 96 0 18 0;
#X connect 96 0 158 0;
#X connect 96 0 176 0;
#X connect 99 0 97 0;
#X connect 100 0 98 0;
#X connect 102 0 12 0;
#X connect 102 0 160 0;
#X connect 102 0 181 0;
#X connect 104 0 103 0;
#X connect 105 0 13 0;
#X connect 105 0 161 0;
#X connect 105 0 181 0;
#X connect 107 0 106 0;
#X connect 108 0 109 0;
#X connect 109 0 37 0;
#X connect 111 0 71 0;
#X connect 111 0 0 2;
#X connect 112 0 78 0;
#X connect 112 0 0 3;
#X connect 113 0 114 0;
#X connect 113 0 165 0;
#X connect 114 0 60 0;
#X connect 115 0 117 0;
#X connect 116 0 121 0;
#X connect 116 1 121 1;
#X connect 116 2 115 0;
#X connect 117 0 118 0;
#X connect 118 0 119 0;
#X connect 119 0 120 1;
#X connect 120 0 67 0;
#X connect 121 0 122 0;
#X connect 122 0 123 0;
#X connect 122 1 123 1;
#X connect 123 0 120 0;
#X connect 132 0 68 0;
#X connect 133 0 75 0;
#X connect 134 0 60 0;
#X connect 135 0 89 0;
#X connect 136 0 88 0;
#X connect 137 0 26 0;
#X connect 138 0 28 0;
#X connect 139 0 95 0;
#X connect 140 0 96 0;
#X connect 141 0 102 0;
#X connect 142 0 105 0;
#X connect 143 0 36 0;
#X connect 144 0 37 0;
#X connect 145 0 146 0;
#X connect 146 0 40 0;
#X connect 147 0 2 1;
#X connect 147 0 4 1;
#X connect 148 0 147 0;
#X connect 149 0 104 0;
#X connect 150 0 107 0;
#X connect 165 0 166 0;
#X connect 166 0 167 0;
#X connect 167 0 164 0;
#X connect 169 0 170 0;
#X connect 170 0 171 0;
#X connect 171 0 168 0;
#X connect 173 0 174 0;
#X connect 174 0 178 0;
#X connect 176 0 177 0;
#X connect 177 0 179 0;
#X connect 178 0 172 0;
#X connect 179 0 175 0;
#X connect 181 0 182 0;
#X connect 182 0 186 0;
#X connect 184 0 185 0;
#X connect 185 0 187 0;
#X connect 186 0 180 0;
#X connect 187 0 183 0;
#X connect 188 0 87 0;
#X connect 189 0 191 0;
#X connect 190 0 58 0;
#X connect 191 0 192 0;
#X connect 192 0 190 0;
#X connect 193 0 194 0;
#X connect 194 0 192 0;
#X connect 194 1 192 1;
#X connect 195 0 193 0;
#X connect 196 0 197 0;
#X connect 197 0 162 0;
#X connect 197 0 215 0;
#X connect 198 0 199 0;
#X connect 199 0 197 0;
#X connect 200 0 82 0;
#X connect 202 0 207 0;
#X connect 202 0 210 0;
#X connect 202 0 211 0;
#X connect 202 0 213 0;
#X connect 203 0 204 0;
#X connect 204 0 205 0;
#X connect 205 0 206 0;
#X connect 206 0 202 1;
#X connect 207 0 87 0;
#X connect 208 0 87 0;
#X connect 209 0 87 0;
#X connect 210 0 87 0;
#X connect 211 0 87 0;
#X connect 212 0 87 0;
#X connect 213 0 87 0;
#X connect 214 0 207 4;
#X connect 214 0 208 4;
#X connect 214 0 213 4;
#X connect 214 0 212 4;
#X connect 214 0 211 4;
#X connect 214 0 188 4;
#X connect 214 0 210 4;
#X connect 214 0 209 4;
#X connect 215 0 214 0;
#X connect 216 0 40 2;
#X connect 217 0 219 0;
#X connect 218 0 217 1;
#X connect 219 0 40 0;
#X connect 220 0 221 0;
#X connect 221 0 218 0;
#X connect 222 0 220 0;
#X connect 222 0 223 0;
#X connect 223 0 217 2;
#X coords 0 -1 1 1 780 180 1 245 40;
#X restore 526 173 pd noises;
#X obj 866 30 s \$0-set;
#N canvas 164 152 1684 880 set 0;
#X obj 1396 193 s \$0-ctap;
#X obj 1206 188 s \$0-cttune;
#X obj 1196 112 s \$0-ctfbinvert;
#X obj 1025 188 s \$0-ctfbpush;
#X obj 1019 119 s \$0-ctfb;
#X obj 841 187 s \$0-ctfbrel;
#X obj 837 114 s \$0-ctfbatk;
#X obj 681 120 s \$0-ctgateatk;
#X obj 680 191 s \$0-ctgaterel;
#X obj 559 193 s \$0-toneamp;
#X obj 550 130 s \$0-tonedamp;
#X obj 420 82 s \$0-tonedetune;
#X obj 317 152 s \$0-tonedep2;
#X obj 260 86 s \$0-tonedep1;
#X obj 47 71 s \$0-static;
#X obj 91 133 s \$0-follow;
#X obj 134 199 s \$0-limitsemi;
#X obj 71 309 s \$0-melomode;
#X obj 69 382 s \$0-meloMWlow;
#X obj 70 460 s \$0-meloMWhigh;
#X obj 1333 299 s \$0-sq1slew;
#X obj 1341 382 s \$0-sq1skew;
#X obj 1353 477 s \$0-sq1ms;
#X obj 1508 524 s \$0-sqretrig;
#X obj 1340 591 s \$0-sq2slew;
#X obj 1345 673 s \$0-sq2skew;
#X obj 1364 767 s \$0-sq2ms;
#X obj 377 308 s \$0-sq11;
#X obj 498 379 s \$0-sq12;
#X obj 630 305 s \$0-sq13;
#X obj 705 374 s \$0-sq14;
#X obj 840 302 s \$0-sq15;
#X obj 924 376 s \$0-sq16;
#X obj 1058 302 s \$0-sq17;
#X obj 1148 373 s \$0-sq18;
#X obj 381 606 s \$0-sq21;
#X obj 1126 670 s \$0-sq28;
#X obj 46 30 r \$0-set;
#X obj 101 30 sel 0 1 2 3 4;
#X msg 166 52;
#X obj 55 90 r \$0-set;
#X obj 110 90 sel 0 1 2 3 4;
#X msg 175 112;
#X obj 76 153 r \$0-set;
#X obj 131 153 sel 0 1 2 3 4;
#X msg 196 175;
#X obj 70 264 r \$0-set;
#X obj 125 264 sel 0 1 2 3 4;
#X obj 70 334 r \$0-set;
#X obj 125 334 sel 0 1 2 3 4;
#X obj 70 414 r \$0-set;
#X obj 125 414 sel 0 1 2 3 4;
#X obj 260 39 r \$0-set;
#X obj 315 39 sel 0 1 2 3 4;
#X obj 261 108 r \$0-set;
#X obj 316 108 sel 0 1 2 3 4;
#X obj 420 33 r \$0-set;
#X obj 475 33 sel 0 1 2 3 4;
#X obj 520 82 r \$0-set;
#X obj 575 82 sel 0 1 2 3 4;
#X obj 508 150 r \$0-set;
#X obj 563 150 sel 0 1 2 3 4;
#X obj 680 74 r \$0-set;
#X obj 735 74 sel 0 1 2 3 4;
#X obj 679 143 r \$0-set;
#X obj 734 143 sel 0 1 2 3 4;
#X obj 834 69 r \$0-set;
#X obj 889 69 sel 0 1 2 3 4;
#X obj 838 139 r \$0-set;
#X obj 893 139 sel 0 1 2 3 4;
#X obj 1016 64 r \$0-set;
#X obj 1071 64 sel 0 1 2 3 4;
#X obj 1018 143 r \$0-set;
#X obj 1073 143 sel 0 1 2 3 4;
#X obj 1191 63 r \$0-set;
#X obj 1246 63 sel 0 1 2 3 4;
#X obj 1193 142 r \$0-set;
#X obj 1248 142 sel 0 1 2 3 4;
#X obj 1365 147 r \$0-set;
#X obj 1420 147 sel 0 1 2 3 4;
#X obj 1322 252 r \$0-set;
#X obj 1377 252 sel 0 1 2 3 4;
#X obj 1334 333 r \$0-set;
#X obj 1389 333 sel 0 1 2 3 4;
#X obj 1347 428 r \$0-set;
#X obj 1402 428 sel 0 1 2 3 4;
#X obj 1329 541 r \$0-set;
#X obj 1384 541 sel 0 1 2 3 4;
#X obj 1341 622 r \$0-set;
#X obj 1398 619 sel 0 1 2 3 4;
#X obj 1354 717 r \$0-set;
#X obj 1409 717 sel 0 1 2 3 4;
#X obj 1506 478 r \$0-set;
#X obj 1561 478 sel 0 1 2 3 4;
#X obj 364 258 r \$0-set;
#X obj 419 258 sel 0 1 2 3 4;
#X obj 453 328 r \$0-set;
#X obj 508 328 sel 0 1 2 3 4;
#X obj 579 257 r \$0-set;
#X obj 634 257 sel 0 1 2 3 4;
#X obj 668 327 r \$0-set;
#X obj 723 327 sel 0 1 2 3 4;
#X obj 796 256 r \$0-set;
#X obj 851 256 sel 0 1 2 3 4;
#X obj 885 326 r \$0-set;
#X obj 940 326 sel 0 1 2 3 4;
#X obj 1011 255 r \$0-set;
#X obj 1066 255 sel 0 1 2 3 4;
#X obj 1100 325 r \$0-set;
#X obj 1155 325 sel 0 1 2 3 4;
#X obj 354 555 r \$0-set;
#X obj 409 555 sel 0 1 2 3 4;
#X obj 443 625 r \$0-set;
#X obj 498 625 sel 0 1 2 3 4;
#X obj 569 554 r \$0-set;
#X obj 624 554 sel 0 1 2 3 4;
#X obj 658 624 r \$0-set;
#X obj 713 624 sel 0 1 2 3 4;
#X obj 786 553 r \$0-set;
#X obj 841 553 sel 0 1 2 3 4;
#X obj 875 623 r \$0-set;
#X obj 930 623 sel 0 1 2 3 4;
#X obj 1001 552 r \$0-set;
#X obj 1056 552 sel 0 1 2 3 4;
#X obj 1090 622 r \$0-set;
#X obj 1145 622 sel 0 1 2 3 4;
#X obj 1531 315 s \$0-sq1aptr;
#X obj 1553 680 s \$0-sq2aptr;
#X obj 1505 268 r \$0-set;
#X obj 1560 268 sel 0 1 2 3 4;
#X obj 1509 624 r \$0-set;
#X obj 1564 624 sel 0 1 2 3 4;
#X msg 1506 500 1;
#X msg 1509 646 2;
#X msg 260 61 30;
#X msg 261 130 79;
#X msg 420 55 89;
#X msg 520 104 104;
#X msg 508 172 33;
#X msg 680 96 21;
#X msg 679 165 11;
#X msg 834 91 58;
#X msg 1016 86 57;
#X msg 1018 165 63;
#X msg 1191 85 0;
#X msg 1350 169 -47.5;
#X msg 1193 164 0;
#X msg 46 52 94;
#X msg 55 112 0;
#X msg 76 175 12;
#X msg 70 356 0;
#X msg 70 436 127;
#X msg 1505 290 4;
#X msg 1322 274 60;
#X msg 1334 355 47;
#X msg 1354 739 212;
#X msg 1329 563 73;
#X msg 1341 644 103;
#X msg 364 280 1;
#X msg 579 279 1;
#X msg 453 350 3;
#X msg 796 278 3;
#X msg 668 349 3;
#X msg 885 348 3;
#X msg 1011 277 3;
#X msg 1100 347 3;
#X msg 1090 644 3;
#X msg 1001 574 3;
#X msg 875 645 3;
#X msg 786 575 3;
#X msg 658 646 3;
#X msg 354 577 3;
#X msg 569 576 3;
#X obj 479 676 s \$0-sq22;
#X obj 612 604 s \$0-sq23;
#X obj 697 678 s \$0-sq24;
#X obj 813 602 s \$0-sq25;
#X obj 904 673 s \$0-sq26;
#X obj 1040 599 s \$0-sq27;
#X msg 839 161 8;
#X msg 76 52 94;
#X msg 85 112 1;
#X msg 106 175 0;
#X msg 100 356 0;
#X msg 100 436 127;
#X msg 290 61 78;
#X msg 291 130 12;
#X msg 550 104 93;
#X msg 538 172 52;
#X msg 710 96 76;
#X msg 709 165 32;
#X msg 864 91 101;
#X msg 868 161 54;
#X msg 1046 86 58;
#X msg 1048 165 60;
#X msg 1221 85 1;
#X msg 1223 164 0;
#X msg 1395 169 -36.5;
#X msg 394 280 3;
#X msg 483 350 2;
#X msg 698 349 0;
#X msg 826 278 0;
#X msg 915 348 3;
#X msg 1041 277 1;
#X msg 1130 347 0;
#X msg 384 577 3;
#X msg 473 647 1;
#X msg 599 576 3;
#X msg 688 646 3;
#X msg 816 575 3;
#X msg 905 645 3;
#X msg 1031 574 3;
#X msg 1120 644 3;
#X msg 1352 274 54;
#X msg 1364 355 94;
#X msg 1377 450 321;
#X msg 1536 500 1;
#X msg 1535 290 7;
#X msg 1539 646 2;
#X msg 1359 563 127;
#X msg 1371 644 103;
#X msg 1384 739 522;
#X msg 609 279 1;
#X msg 450 55 29;
#X msg 106 52 115;
#X msg 115 112 1;
#X msg 136 175 12;
#X msg 130 356 0;
#X msg 130 436 127;
#X msg 424 280 1;
#X msg 513 350 3;
#X msg 639 279 3;
#X msg 728 349 3;
#X msg 856 278 3;
#X msg 945 348 0;
#X msg 1071 277 3;
#X msg 1160 347 3;
#X msg 414 577 3;
#X msg 503 647 3;
#X msg 629 576 3;
#X msg 718 646 2;
#X msg 846 575 3;
#X msg 936 645 1;
#X msg 1061 574 3;
#X msg 1150 644 2;
#X msg 320 61 97;
#X msg 321 130 97;
#X msg 480 55 44;
#X msg 580 104 83;
#X msg 568 172 89;
#X msg 740 96 0;
#X msg 739 165 0;
#X msg 894 91 113;
#X msg 898 161 0;
#X msg 1076 86 74;
#X msg 1078 165 17;
#X msg 1251 85 0;
#X msg 1253 164 0;
#X msg 1442 171 30.4;
#X msg 1382 274 60;
#X msg 1394 355 47;
#X msg 1389 563 73;
#X msg 1401 644 103;
#X msg 1414 739 173;
#X msg 1566 500 0;
#X msg 1565 290 7;
#X msg 1569 646 7;
#X msg 136 52 48;
#X msg 145 112 1;
#X msg 166 175 7;
#X msg 160 356 0;
#X msg 160 436 127;
#X msg 1412 274 112;
#X msg 1424 355 47;
#X msg 1419 563 0;
#X msg 1431 644 38;
#X msg 1596 500 1;
#X msg 1407 450 574;
#X msg 1444 739 247;
#X msg 1595 290 1;
#X msg 1599 646 1;
#X msg 454 280 0;
#X msg 543 350 3;
#X msg 669 279 1;
#X msg 758 349 3;
#X msg 886 278 3;
#X msg 975 348 3;
#X msg 1101 277 3;
#X msg 1190 347 3;
#X msg 444 577 1;
#X msg 533 647 0;
#X msg 659 576 3;
#X msg 748 646 3;
#X msg 876 575 3;
#X msg 965 645 3;
#X msg 1091 574 3;
#X msg 1180 644 3;
#X msg 350 61 74;
#X msg 351 131 73;
#X msg 510 55 80;
#X msg 610 104 127;
#X msg 598 172 31;
#X msg 770 96 0;
#X msg 769 165 0;
#X msg 924 91 16;
#X msg 928 161 43;
#X msg 1106 86 50;
#X msg 1108 165 65;
#X msg 1283 164 0;
#X msg 1485 170 -14.7;
#X msg 1281 85 1;
#X msg 484 280 1;
#X msg 573 351 3;
#X msg 699 279 2;
#X msg 788 349 3;
#X msg 916 278 1;
#X msg 1220 347 3;
#X msg 1005 348 3;
#X msg 1131 277 3;
#X msg 474 577 3;
#X msg 563 647 2;
#X msg 689 576 0;
#X msg 778 646 2;
#X msg 906 575 2;
#X msg 995 645 3;
#X msg 1121 574 0;
#X msg 1210 644 3;
#X msg 1629 646 7;
#X msg 1625 290 5;
#X msg 1442 274 0;
#X msg 1454 355 92;
#X msg 1467 450 161;
#X msg 1626 500 0;
#X msg 190 356 0;
#X msg 190 436 127;
#X msg 380 61 69;
#X msg 381 130 41;
#X msg 540 55 78;
#X msg 640 104 91;
#X msg 628 172 111;
#X msg 800 96 0;
#X msg 799 165 111;
#X msg 954 91 0;
#X msg 958 161 114;
#X msg 1136 86 0;
#X msg 1138 165 107;
#X msg 1311 85 0;
#X msg 1313 164 0;
#X msg 1529 173 -24.1;
#X msg 1437 450 355;
#X msg 1474 739 445;
#X msg 1449 563 127;
#X msg 1461 644 103;
#X msg 70 286 2;
#X msg 100 286 1;
#X msg 130 286 1;
#X msg 160 286 1;
#X msg 190 286 2;
#X msg 443 647 2;
#X msg 1347 450 301;
#X connect 37 0 38 0;
#X connect 38 0 147 0;
#X connect 38 1 180 0;
#X connect 38 2 224 0;
#X connect 38 3 267 0;
#X connect 38 4 39 0;
#X connect 39 0 14 0;
#X connect 40 0 41 0;
#X connect 41 0 148 0;
#X connect 41 1 181 0;
#X connect 41 2 225 0;
#X connect 41 3 268 0;
#X connect 41 4 42 0;
#X connect 42 0 15 0;
#X connect 43 0 44 0;
#X connect 44 0 149 0;
#X connect 44 1 182 0;
#X connect 44 2 226 0;
#X connect 44 3 269 0;
#X connect 44 4 45 0;
#X connect 45 0 16 0;
#X connect 46 0 47 0;
#X connect 47 0 353 0;
#X connect 47 1 354 0;
#X connect 47 2 355 0;
#X connect 47 3 356 0;
#X connect 47 4 357 0;
#X connect 48 0 49 0;
#X connect 49 0 150 0;
#X connect 49 1 183 0;
#X connect 49 2 227 0;
#X connect 49 3 270 0;
#X connect 49 4 333 0;
#X connect 50 0 51 0;
#X connect 51 0 151 0;
#X connect 51 1 184 0;
#X connect 51 2 228 0;
#X connect 51 3 271 0;
#X connect 51 4 334 0;
#X connect 52 0 53 0;
#X connect 53 0 134 0;
#X connect 53 1 185 0;
#X connect 53 2 245 0;
#X connect 53 3 297 0;
#X connect 53 4 335 0;
#X connect 54 0 55 0;
#X connect 55 0 135 0;
#X connect 55 1 186 0;
#X connect 55 2 246 0;
#X connect 55 3 298 0;
#X connect 55 4 336 0;
#X connect 56 0 57 0;
#X connect 57 0 136 0;
#X connect 57 1 223 0;
#X connect 57 2 247 0;
#X connect 57 3 299 0;
#X connect 57 4 337 0;
#X connect 58 0 59 0;
#X connect 59 0 137 0;
#X connect 59 1 187 0;
#X connect 59 2 248 0;
#X connect 59 3 300 0;
#X connect 59 4 338 0;
#X connect 60 0 61 0;
#X connect 61 0 138 0;
#X connect 61 1 188 0;
#X connect 61 2 249 0;
#X connect 61 3 301 0;
#X connect 61 4 339 0;
#X connect 62 0 63 0;
#X connect 63 0 139 0;
#X connect 63 1 189 0;
#X connect 63 2 250 0;
#X connect 63 3 302 0;
#X connect 63 4 340 0;
#X connect 64 0 65 0;
#X connect 65 0 140 0;
#X connect 65 1 190 0;
#X connect 65 2 251 0;
#X connect 65 3 303 0;
#X connect 65 4 341 0;
#X connect 66 0 67 0;
#X connect 67 0 141 0;
#X connect 67 1 191 0;
#X connect 67 2 252 0;
#X connect 67 3 304 0;
#X connect 67 4 342 0;
#X connect 68 0 69 0;
#X connect 69 0 179 0;
#X connect 69 1 192 0;
#X connect 69 2 253 0;
#X connect 69 3 305 0;
#X connect 69 4 343 0;
#X connect 70 0 71 0;
#X connect 71 0 142 0;
#X connect 71 1 193 0;
#X connect 71 2 254 0;
#X connect 71 3 306 0;
#X connect 71 4 344 0;
#X connect 72 0 73 0;
#X connect 73 0 143 0;
#X connect 73 1 194 0;
#X connect 73 2 255 0;
#X connect 73 3 307 0;
#X connect 73 4 345 0;
#X connect 74 0 75 0;
#X connect 75 0 144 0;
#X connect 75 1 195 0;
#X connect 75 2 256 0;
#X connect 75 3 310 0;
#X connect 75 4 346 0;
#X connect 76 0 77 0;
#X connect 77 0 146 0;
#X connect 77 1 196 0;
#X connect 77 2 257 0;
#X connect 77 3 308 0;
#X connect 77 4 347 0;
#X connect 78 0 79 0;
#X connect 79 0 145 0;
#X connect 79 1 197 0;
#X connect 79 2 258 0;
#X connect 79 3 309 0;
#X connect 79 4 348 0;
#X connect 80 0 81 0;
#X connect 81 0 153 0;
#X connect 81 1 213 0;
#X connect 81 2 259 0;
#X connect 81 3 272 0;
#X connect 81 4 329 0;
#X connect 82 0 83 0;
#X connect 83 0 154 0;
#X connect 83 1 214 0;
#X connect 83 2 260 0;
#X connect 83 3 273 0;
#X connect 83 4 330 0;
#X connect 84 0 85 0;
#X connect 85 0 359 0;
#X connect 85 1 215 0;
#X connect 85 2 277 0;
#X connect 85 3 349 0;
#X connect 85 4 331 0;
#X connect 86 0 87 0;
#X connect 87 0 156 0;
#X connect 87 1 219 0;
#X connect 87 2 261 0;
#X connect 87 3 274 0;
#X connect 87 4 351 0;
#X connect 88 0 89 0;
#X connect 89 0 157 0;
#X connect 89 1 220 0;
#X connect 89 2 262 0;
#X connect 89 3 275 0;
#X connect 89 4 352 0;
#X connect 90 0 91 0;
#X connect 91 0 155 0;
#X connect 91 1 221 0;
#X connect 91 2 263 0;
#X connect 91 3 278 0;
#X connect 91 4 350 0;
#X connect 92 0 93 0;
#X connect 93 0 132 0;
#X connect 93 1 216 0;
#X connect 93 2 264 0;
#X connect 93 3 276 0;
#X connect 93 4 332 0;
#X connect 94 0 95 0;
#X connect 95 0 158 0;
#X connect 95 1 198 0;
#X connect 95 2 229 0;
#X connect 95 3 281 0;
#X connect 95 4 311 0;
#X connect 96 0 97 0;
#X connect 97 0 160 0;
#X connect 97 1 199 0;
#X connect 97 2 230 0;
#X connect 97 3 282 0;
#X connect 97 4 312 0;
#X connect 98 0 99 0;
#X connect 99 0 159 0;
#X connect 99 1 222 0;
#X connect 99 2 231 0;
#X connect 99 3 283 0;
#X connect 99 4 313 0;
#X connect 100 0 101 0;
#X connect 101 0 162 0;
#X connect 101 1 200 0;
#X connect 101 2 232 0;
#X connect 101 3 284 0;
#X connect 101 4 314 0;
#X connect 102 0 103 0;
#X connect 103 0 161 0;
#X connect 103 1 201 0;
#X connect 103 2 233 0;
#X connect 103 3 285 0;
#X connect 103 4 315 0;
#X connect 104 0 105 0;
#X connect 105 0 163 0;
#X connect 105 1 202 0;
#X connect 105 2 234 0;
#X connect 105 3 286 0;
#X connect 105 4 317 0;
#X connect 106 0 107 0;
#X connect 107 0 164 0;
#X connect 107 1 203 0;
#X connect 107 2 235 0;
#X connect 107 3 287 0;
#X connect 107 4 318 0;
#X connect 108 0 109 0;
#X connect 109 0 165 0;
#X connect 109 1 204 0;
#X connect 109 2 236 0;
#X connect 109 3 288 0;
#X connect 109 4 316 0;
#X connect 110 0 111 0;
#X connect 111 0 171 0;
#X connect 111 1 205 0;
#X connect 111 2 237 0;
#X connect 111 3 289 0;
#X connect 111 4 319 0;
#X connect 112 0 113 0;
#X connect 113 0 358 0;
#X connect 113 1 206 0;
#X connect 113 2 238 0;
#X connect 113 3 290 0;
#X connect 113 4 320 0;
#X connect 114 0 115 0;
#X connect 115 0 172 0;
#X connect 115 1 207 0;
#X connect 115 2 239 0;
#X connect 115 3 291 0;
#X connect 115 4 321 0;
#X connect 116 0 117 0;
#X connect 117 0 170 0;
#X connect 117 1 208 0;
#X connect 117 2 240 0;
#X connect 117 3 292 0;
#X connect 117 4 322 0;
#X connect 118 0 119 0;
#X connect 119 0 169 0;
#X connect 119 1 209 0;
#X connect 119 2 241 0;
#X connect 119 3 293 0;
#X connect 119 4 323 0;
#X connect 120 0 121 0;
#X connect 121 0 168 0;
#X connect 121 1 210 0;
#X connect 121 2 242 0;
#X connect 121 3 294 0;
#X connect 121 4 324 0;
#X connect 122 0 123 0;
#X connect 123 0 167 0;
#X connect 123 1 211 0;
#X connect 123 2 243 0;
#X connect 123 3 295 0;
#X connect 123 4 325 0;
#X connect 124 0 125 0;
#X connect 125 0 166 0;
#X connect 125 1 212 0;
#X connect 125 2 244 0;
#X connect 125 3 296 0;
#X connect 125 4 326 0;
#X connect 128 0 129 0;
#X connect 129 0 152 0;
#X connect 129 1 217 0;
#X connect 129 2 265 0;
#X connect 129 3 279 0;
#X connect 129 4 328 0;
#X connect 130 0 131 0;
#X connect 131 0 133 0;
#X connect 131 1 218 0;
#X connect 131 2 266 0;
#X connect 131 3 280 0;
#X connect 131 4 327 0;
#X connect 132 0 23 0;
#X connect 133 0 127 0;
#X connect 134 0 13 0;
#X connect 135 0 12 0;
#X connect 136 0 11 0;
#X connect 137 0 10 0;
#X connect 138 0 9 0;
#X connect 139 0 7 0;
#X connect 140 0 8 0;
#X connect 141 0 6 0;
#X connect 142 0 4 0;
#X connect 143 0 3 0;
#X connect 144 0 2 0;
#X connect 145 0 0 0;
#X connect 146 0 1 0;
#X connect 147 0 14 0;
#X connect 148 0 15 0;
#X connect 149 0 16 0;
#X connect 150 0 18 0;
#X connect 151 0 19 0;
#X connect 152 0 126 0;
#X connect 153 0 20 0;
#X connect 154 0 21 0;
#X connect 155 0 26 0;
#X connect 156 0 24 0;
#X connect 157 0 25 0;
#X connect 158 0 27 0;
#X connect 159 0 29 0;
#X connect 160 0 28 0;
#X connect 161 0 31 0;
#X connect 162 0 30 0;
#X connect 163 0 32 0;
#X connect 164 0 33 0;
#X connect 165 0 34 0;
#X connect 166 0 36 0;
#X connect 167 0 178 0;
#X connect 168 0 177 0;
#X connect 169 0 176 0;
#X connect 170 0 175 0;
#X connect 171 0 35 0;
#X connect 172 0 174 0;
#X connect 179 0 5 0;
#X connect 180 0 14 0;
#X connect 181 0 15 0;
#X connect 182 0 16 0;
#X connect 183 0 18 0;
#X connect 184 0 19 0;
#X connect 185 0 13 0;
#X connect 186 0 12 0;
#X connect 187 0 10 0;
#X connect 188 0 9 0;
#X connect 189 0 7 0;
#X connect 190 0 8 0;
#X connect 191 0 6 0;
#X connect 192 0 5 0;
#X connect 193 0 4 0;
#X connect 194 0 3 0;
#X connect 195 0 2 0;
#X connect 196 0 1 0;
#X connect 197 0 0 0;
#X connect 198 0 27 0;
#X connect 199 0 28 0;
#X connect 200 0 30 0;
#X connect 201 0 31 0;
#X connect 202 0 32 0;
#X connect 203 0 33 0;
#X connect 204 0 34 0;
#X connect 205 0 35 0;
#X connect 206 0 173 0;
#X connect 207 0 174 0;
#X connect 208 0 175 0;
#X connect 209 0 176 0;
#X connect 210 0 177 0;
#X connect 211 0 178 0;
#X connect 212 0 36 0;
#X connect 213 0 20 0;
#X connect 214 0 21 0;
#X connect 215 0 22 0;
#X connect 216 0 23 0;
#X connect 217 0 126 0;
#X connect 218 0 127 0;
#X connect 219 0 24 0;
#X connect 220 0 25 0;
#X connect 221 0 26 0;
#X connect 222 0 29 0;
#X connect 223 0 11 0;
#X connect 224 0 14 0;
#X connect 225 0 15 0;
#X connect 226 0 16 0;
#X connect 227 0 18 0;
#X connect 228 0 19 0;
#X connect 229 0 27 0;
#X connect 230 0 28 0;
#X connect 231 0 29 0;
#X connect 232 0 30 0;
#X connect 233 0 31 0;
#X connect 234 0 32 0;
#X connect 235 0 33 0;
#X connect 236 0 34 0;
#X connect 237 0 35 0;
#X connect 238 0 173 0;
#X connect 239 0 174 0;
#X connect 240 0 175 0;
#X connect 241 0 176 0;
#X connect 242 0 177 0;
#X connect 243 0 178 0;
#X connect 244 0 36 0;
#X connect 245 0 13 0;
#X connect 246 0 12 0;
#X connect 247 0 11 0;
#X connect 248 0 10 0;
#X connect 249 0 9 0;
#X connect 250 0 7 0;
#X connect 251 0 8 0;
#X connect 252 0 6 0;
#X connect 253 0 5 0;
#X connect 254 0 4 0;
#X connect 255 0 3 0;
#X connect 256 0 2 0;
#X connect 257 0 1 0;
#X connect 258 0 0 0;
#X connect 259 0 20 0;
#X connect 260 0 21 0;
#X connect 261 0 24 0;
#X connect 262 0 25 0;
#X connect 263 0 26 0;
#X connect 264 0 23 0;
#X connect 265 0 126 0;
#X connect 266 0 127 0;
#X connect 267 0 14 0;
#X connect 268 0 15 0;
#X connect 269 0 16 0;
#X connect 270 0 18 0;
#X connect 271 0 19 0;
#X connect 272 0 20 0;
#X connect 273 0 21 0;
#X connect 274 0 24 0;
#X connect 275 0 25 0;
#X connect 276 0 23 0;
#X connect 277 0 22 0;
#X connect 278 0 26 0;
#X connect 279 0 126 0;
#X connect 280 0 127 0;
#X connect 281 0 27 0;
#X connect 282 0 28 0;
#X connect 283 0 29 0;
#X connect 284 0 30 0;
#X connect 285 0 31 0;
#X connect 286 0 32 0;
#X connect 287 0 33 0;
#X connect 288 0 34 0;
#X connect 289 0 35 0;
#X connect 290 0 173 0;
#X connect 291 0 174 0;
#X connect 292 0 175 0;
#X connect 293 0 176 0;
#X connect 294 0 177 0;
#X connect 295 0 178 0;
#X connect 296 0 36 0;
#X connect 297 0 13 0;
#X connect 298 0 12 0;
#X connect 299 0 11 0;
#X connect 300 0 10 0;
#X connect 301 0 9 0;
#X connect 302 0 7 0;
#X connect 303 0 8 0;
#X connect 304 0 6 0;
#X connect 305 0 5 0;
#X connect 306 0 4 0;
#X connect 307 0 3 0;
#X connect 308 0 1 0;
#X connect 309 0 0 0;
#X connect 310 0 2 0;
#X connect 311 0 27 0;
#X connect 312 0 28 0;
#X connect 313 0 29 0;
#X connect 314 0 30 0;
#X connect 315 0 31 0;
#X connect 316 0 34 0;
#X connect 317 0 32 0;
#X connect 318 0 33 0;
#X connect 319 0 35 0;
#X connect 320 0 173 0;
#X connect 321 0 174 0;
#X connect 322 0 175 0;
#X connect 323 0 176 0;
#X connect 324 0 177 0;
#X connect 325 0 178 0;
#X connect 326 0 36 0;
#X connect 327 0 127 0;
#X connect 328 0 126 0;
#X connect 329 0 20 0;
#X connect 330 0 21 0;
#X connect 331 0 22 0;
#X connect 332 0 23 0;
#X connect 333 0 18 0;
#X connect 334 0 19 0;
#X connect 335 0 13 0;
#X connect 336 0 12 0;
#X connect 337 0 11 0;
#X connect 338 0 10 0;
#X connect 339 0 9 0;
#X connect 340 0 7 0;
#X connect 341 0 8 0;
#X connect 342 0 6 0;
#X connect 343 0 5 0;
#X connect 344 0 4 0;
#X connect 345 0 3 0;
#X connect 346 0 2 0;
#X connect 347 0 1 0;
#X connect 348 0 0 0;
#X connect 349 0 22 0;
#X connect 350 0 26 0;
#X connect 351 0 24 0;
#X connect 352 0 25 0;
#X connect 353 0 17 0;
#X connect 354 0 17 0;
#X connect 355 0 17 0;
#X connect 356 0 17 0;
#X connect 357 0 17 0;
#X connect 358 0 173 0;
#X connect 359 0 22 0;
#X restore 940 34 pd set;
#X obj 775 6 loadbang;
#X obj 775 28 del 20;
#X msg 775 50 0;
#N canvas 403 153 1190 793 tip 0;
#X obj 103 147 cnv 15 10 10 empty \$0-thanks0 static_limit_restricts_the_melody_generator_from_exceeding_a
20 12 0 12 -233017 -66577 0;
#X obj 103 164 cnv 15 10 10 empty \$0-thanks1 frequencey._by_following_the_pitch_instead-_the_melody_will
20 12 0 12 -233017 -66577 0;
#X obj 103 181 cnv 15 10 10 empty \$0-thanks2 restrict_itself_to_the_input_frequencey_according_to_the
20 12 0 12 -233017 -66577 0;
#X obj 103 198 cnv 15 10 10 empty \$0-thanks3 offset. 20 12 0 12 -233017
-66577 0;
#X obj 103 215 cnv 15 10 10 empty \$0-thanks4 empty 20 12 0 12 -233017
-66577 0;
#X obj 92 261 r \$0-tipped;
#X obj 92 281 sel 0 1 2 3 4 5 6 7;
#X msg 92 627 symbol nope;
#X obj 92 647 makefilename \$0-thanks0;
#X msg 92 707 \; \$1 label the_2_sequences_toggle_multiples_of_the_input_pitches_and
;
#X msg 102 747 \; \$1 label send_them_to_the_melody_generator._Slew_causes_the_melody_to
;
#X obj 102 657 makefilename \$0-thanks1;
#X obj 112 667 makefilename \$0-thanks2;
#X obj 122 677 makefilename \$0-thanks3;
#X obj 132 687 makefilename \$0-thanks4;
#X msg 112 787 \; \$1 label glide_between_multiples._Skew_causes_higher_or_lower
;
#X msg 132 867 \; \$1 label;
#X msg 542 627 symbol nope;
#X obj 542 647 makefilename \$0-thanks0;
#X obj 552 657 makefilename \$0-thanks1;
#X obj 562 667 makefilename \$0-thanks2;
#X obj 572 677 makefilename \$0-thanks3;
#X obj 582 687 makefilename \$0-thanks4;
#X msg 582 867 \; \$1 label;
#X msg 992 627 symbol nope;
#X obj 992 647 makefilename \$0-thanks0;
#X obj 1002 657 makefilename \$0-thanks1;
#X obj 1012 667 makefilename \$0-thanks2;
#X obj 1022 677 makefilename \$0-thanks3;
#X obj 1032 687 makefilename \$0-thanks4;
#X msg 1032 867 \; \$1 label;
#X msg 1442 627 symbol nope;
#X obj 1442 647 makefilename \$0-thanks0;
#X obj 1452 657 makefilename \$0-thanks1;
#X obj 1462 667 makefilename \$0-thanks2;
#X obj 1472 677 makefilename \$0-thanks3;
#X obj 1482 687 makefilename \$0-thanks4;
#X msg 542 707 \; \$1 label static_limit_restricts_the_melody_generator_from_exceeding_a
;
#X msg 562 787 \; \$1 label restrict_itself_to_the_input_frequencey_according_to_the
;
#X msg 572 827 \; \$1 label offset.;
#X msg 992 707 \; \$1 label depth_1_and_2_control_pitch_feedback_paths_in_the_melody
;
#X msg 1012 787 \; \$1 label adds_Hz_feedback_into_the_system-_throwing_the_melody_out
;
#X msg 1022 827 \; \$1 label of_tune_and_adding_some_zest.;
#X msg 1002 747 \; \$1 label generator._higher_depths_result_in_more_harmonics._detune
;
#X msg 1442 707 \; \$1 label amp_controls_the_amplitude_of_the_melody_signal_input_into
;
#X msg 1452 747 \; \$1 label the_resonators._lower_amplitudes_can_excite_the_resonance
;
#X msg 1462 787 \; \$1 label more_gracefully._higher_amplitudes_can_tame_feedback._damp
;
#X msg 1472 827 \; \$1 label controls_frequency_of_a_low_pass_filter_on_the_melody
;
#X msg 1482 867 \; \$1 label output.;
#X msg 102 307 symbol nope;
#X obj 102 327 makefilename \$0-thanks0;
#X obj 112 337 makefilename \$0-thanks1;
#X obj 122 347 makefilename \$0-thanks2;
#X obj 132 357 makefilename \$0-thanks3;
#X obj 142 367 makefilename \$0-thanks4;
#X msg 142 547 \; \$1 label;
#X msg 552 307 symbol nope;
#X obj 552 327 makefilename \$0-thanks0;
#X obj 562 337 makefilename \$0-thanks1;
#X obj 572 347 makefilename \$0-thanks2;
#X obj 582 357 makefilename \$0-thanks3;
#X obj 592 367 makefilename \$0-thanks4;
#X msg 592 547 \; \$1 label;
#X msg 1002 307 symbol nope;
#X obj 1002 327 makefilename \$0-thanks0;
#X obj 1012 337 makefilename \$0-thanks1;
#X obj 1022 347 makefilename \$0-thanks2;
#X obj 1032 357 makefilename \$0-thanks3;
#X obj 1042 367 makefilename \$0-thanks4;
#X msg 1042 547 \; \$1 label;
#X msg 1452 307 symbol nope;
#X obj 1452 327 makefilename \$0-thanks0;
#X obj 1462 337 makefilename \$0-thanks1;
#X obj 1472 347 makefilename \$0-thanks2;
#X obj 1482 357 makefilename \$0-thanks3;
#X obj 1492 367 makefilename \$0-thanks4;
#X msg 102 387 \; \$1 label the_gate_allows_input_from_the_melody_generator_into_each
;
#X msg 112 427 \; \$1 label resonator_as_they_are_activated.;
#X msg 122 467 \; \$1 label;
#X msg 132 507 \; \$1 label;
#X msg 552 387 \; \$1 label feedback_env_will_push_feedback_greater_than_1_while_keys
;
#X msg 562 427 \; \$1 label stay_held._The_actual_release_time_may_be_longer_than
;
#X msg 572 467 \; \$1 label the_reading-_as_each_resonator_rings_out.
;
#X msg 582 507 \; \$1 label;
#X msg 1032 507 \; \$1 label;
#X msg 1022 467 \; \$1 label;
#X msg 1002 387 \; \$1 label feedback_updates_on_new_key_presses._push_adds_to_the
;
#X msg 1012 427 \; \$1 label feedback-_timing_according_to_the_feedback_env.
;
#X msg 1462 427 \; \$1 label out_of_tune._Inverting_the_resonators_can_compound_this.
;
#X msg 1472 467 \; \$1 label sometimes_tuning_down_can_help_compensate_in_certain_key
;
#X msg 1482 507 \; \$1 label ranges.;
#X msg 552 747 \; \$1 label frequencey._by_following_the_pitch_instead-_the_melody_will
;
#X msg 122 827 \; \$1 label multiples_to_pass_more_quickly-_breaking_up_the_rhythm.
;
#X msg 1452 387 \; \$1 label allpass_greater_than_0_will_throw_harmonics
;
#X msg 1492 547 \; \$1 label;
#X connect 5 0 6 0;
#X connect 6 0 7 0;
#X connect 6 1 17 0;
#X connect 6 2 24 0;
#X connect 6 3 31 0;
#X connect 6 4 49 0;
#X connect 6 5 56 0;
#X connect 6 6 63 0;
#X connect 6 7 70 0;
#X connect 7 0 8 0;
#X connect 7 0 11 0;
#X connect 7 0 12 0;
#X connect 7 0 13 0;
#X connect 7 0 14 0;
#X connect 8 0 9 0;
#X connect 11 0 10 0;
#X connect 12 0 15 0;
#X connect 13 0 92 0;
#X connect 14 0 16 0;
#X connect 17 0 18 0;
#X connect 17 0 19 0;
#X connect 17 0 20 0;
#X connect 17 0 21 0;
#X connect 17 0 22 0;
#X connect 18 0 37 0;
#X connect 19 0 91 0;
#X connect 20 0 38 0;
#X connect 21 0 39 0;
#X connect 22 0 23 0;
#X connect 24 0 25 0;
#X connect 24 0 26 0;
#X connect 24 0 27 0;
#X connect 24 0 28 0;
#X connect 24 0 29 0;
#X connect 25 0 40 0;
#X connect 26 0 43 0;
#X connect 27 0 41 0;
#X connect 28 0 42 0;
#X connect 29 0 30 0;
#X connect 31 0 32 0;
#X connect 31 0 33 0;
#X connect 31 0 34 0;
#X connect 31 0 35 0;
#X connect 31 0 36 0;
#X connect 32 0 44 0;
#X connect 33 0 45 0;
#X connect 34 0 46 0;
#X connect 35 0 47 0;
#X connect 36 0 48 0;
#X connect 49 0 50 0;
#X connect 49 0 51 0;
#X connect 49 0 52 0;
#X connect 49 0 53 0;
#X connect 49 0 54 0;
#X connect 50 0 76 0;
#X connect 51 0 77 0;
#X connect 52 0 78 0;
#X connect 53 0 79 0;
#X connect 54 0 55 0;
#X connect 56 0 57 0;
#X connect 56 0 58 0;
#X connect 56 0 59 0;
#X connect 56 0 60 0;
#X connect 56 0 61 0;
#X connect 57 0 80 0;
#X connect 58 0 81 0;
#X connect 59 0 82 0;
#X connect 60 0 83 0;
#X connect 61 0 62 0;
#X connect 63 0 64 0;
#X connect 63 0 65 0;
#X connect 63 0 66 0;
#X connect 63 0 67 0;
#X connect 63 0 68 0;
#X connect 64 0 86 0;
#X connect 65 0 87 0;
#X connect 66 0 85 0;
#X connect 67 0 84 0;
#X connect 68 0 69 0;
#X connect 70 0 71 0;
#X connect 70 0 72 0;
#X connect 70 0 73 0;
#X connect 70 0 74 0;
#X connect 70 0 75 0;
#X connect 71 0 93 0;
#X connect 72 0 88 0;
#X connect 73 0 89 0;
#X connect 74 0 90 0;
#X connect 75 0 94 0;
#X coords 0 -1 1 1 500 140 2 100 100;
#X restore 806 366 pd tip;
#X obj 526 661 outlet~;
#X obj 560 13 inlet;
#X obj 563 34 t l l;
#X obj 1031 121 cnv 15 100 10 empty empty Bedtime 20 12 0 28 -233017
-66577 0;
#N canvas 831 205 568 582 pitchbend 0;
#X obj 105 129 vradio 15 1 0 3 empty empty empty 0 -8 0 10 -262144
-1 -1 2;
#X obj 121 129 cnv 15 10 10 empty empty off 6 6 0 10 -233017 -66577
0;
#X obj 121 144 cnv 15 10 10 empty empty reset_sequence 6 6 0 10 -233017
-66577 0;
#X obj 121 159 cnv 15 10 10 empty empty mod_speed 6 6 0 10 -233017
-66577 0;
#X obj 292 21 inlet;
#X obj 80 526 outlet;
#X obj 151 537 outlet;
#X obj 299 169 / 8192;
#X obj 324 115 > 8192;
#X obj 294 74 t f f;
#X obj 303 140 +;
#X obj 300 245 * 0.8;
#X obj 45 332 abs;
#X obj 38 363 > 0.1;
#X obj 38 411 sel 1;
#X obj 38 385 change;
#X obj 299 214 -;
#X msg 299 193 1 \$1;
#X msg 151 400 0;
#X obj 109 191 t f b;
#X obj 80 500 spigot;
#X obj 159 457 spigot;
#X obj 167 252 == 2;
#X obj 110 255 == 1;
#X obj 104 26 loadbang;
#X msg 101 50 0;
#X connect 0 0 19 0;
#X connect 4 0 9 0;
#X connect 7 0 17 0;
#X connect 8 0 10 1;
#X connect 9 0 10 0;
#X connect 9 1 8 0;
#X connect 10 0 7 0;
#X connect 11 0 21 0;
#X connect 12 0 13 0;
#X connect 13 0 15 0;
#X connect 14 0 20 0;
#X connect 15 0 14 0;
#X connect 16 0 11 0;
#X connect 16 0 12 0;
#X connect 17 0 16 0;
#X connect 18 0 6 0;
#X connect 19 0 22 0;
#X connect 19 0 23 0;
#X connect 19 1 18 0;
#X connect 20 0 5 0;
#X connect 21 0 6 0;
#X connect 22 0 21 1;
#X connect 23 0 20 1;
#X connect 24 0 25 0;
#X connect 25 0 0 0;
#X coords 0 -1 1 1 130 80 1 100 100;
#X restore 384 365 pd pitchbend;
#X obj 380 17 inlet;
#X connect 0 0 4 0;
#X connect 0 1 4 1;
#X connect 1 0 2 0;
#X connect 1 0 4 2;
#X connect 2 0 4 3;
#X connect 3 0 5 0;
#X connect 4 0 11 0;
#X connect 7 0 8 0;
#X connect 8 0 9 0;
#X connect 9 0 3 0;
#X connect 12 0 13 0;
#X connect 13 0 1 0;
#X connect 13 1 4 4;
#X connect 15 0 0 0;
#X connect 15 1 0 1;
#X connect 16 0 15 0;
#X coords 0 -1 1 1 950 550 1 365 60;
