#N canvas 156 195 1517 443 10;
#X obj 154 338 noinresonator;
#X obj 392 232 +~;
#X obj 392 200 vline~;
#X text 358 254 fb;
#X obj 391 256 *~;
#X text 132 254 gate;
#X obj 117 228 vline~;
#X obj 103 268 *~;
#X obj 394 125 f;
#X msg 393 173 \$1 \$2;
#X obj 394 147 pack;
#X obj 457 129 f;
#X msg 457 153 0 \$1;
#X obj 138 123 f;
#X msg 138 147 1 \$1;
#X obj 178 133 f;
#X msg 178 157 0 \$1;
#X obj 74 68 t b b;
#X obj 113 69 t b b;
#X text 51 95 on;
#X text 118 97 off;
#X obj 103 5 inlet;
#X obj 149 30 bang;
#X obj 102 26 sel 0;
#X obj 7 1 inlet~;
#X obj 98 390 outlet~;
#X obj 61 4 inlet;
#X obj 454 199 * -2;
#X obj 454 219 + 1;
#X obj 454 242 sig~;
#X obj 309 285 clip~ -3 1.1;
#X obj 246 161 +;
#X obj 260 142 * 12;
#X obj 206 268 mtof~;
#X obj 185 292 sig~ 1000;
#X obj 186 314 /~;
#X obj 219 193 vline~;
#X obj 908 24 inlet~;
#X text 1007 45 tune;
#X obj 225 29 r \$1-gateatk;
#X obj 318 29 r \$1-gaterel;
#X obj 427 31 r \$1-fbatk;
#X obj 519 31 r \$1-fbrel;
#X obj 613 26 r \$1-basefb;
#X obj 704 25 r \$1-pushfb;
#X obj 801 23 r \$1-negate;
#X obj 637 303 r \$1-ap;
#X obj 917 94 /~ 127;
#X obj 914 121 *~;
#X obj 901 146 *~;
#X obj 207 232 +~;
#X obj 987 25 inlet~;
#X connect 0 0 25 0;
#X connect 1 0 4 0;
#X connect 2 0 1 0;
#X connect 4 0 30 0;
#X connect 6 0 7 1;
#X connect 7 0 0 0;
#X connect 8 0 10 0;
#X connect 9 0 2 0;
#X connect 10 0 9 0;
#X connect 11 0 12 0;
#X connect 12 0 2 0;
#X connect 13 0 14 0;
#X connect 14 0 6 0;
#X connect 15 0 16 0;
#X connect 16 0 6 0;
#X connect 17 0 8 0;
#X connect 17 1 13 0;
#X connect 18 0 11 0;
#X connect 18 1 15 0;
#X connect 21 0 23 0;
#X connect 22 0 17 0;
#X connect 23 0 18 0;
#X connect 23 1 22 0;
#X connect 24 0 7 0;
#X connect 26 0 31 0;
#X connect 27 0 28 0;
#X connect 28 0 29 0;
#X connect 29 0 4 1;
#X connect 30 0 0 2;
#X connect 31 0 36 0;
#X connect 32 0 31 1;
#X connect 33 0 35 1;
#X connect 34 0 35 0;
#X connect 35 0 0 1;
#X connect 36 0 47 0;
#X connect 36 0 50 0;
#X connect 37 0 49 1;
#X connect 39 0 13 1;
#X connect 40 0 15 1;
#X connect 41 0 10 1;
#X connect 42 0 11 1;
#X connect 43 0 1 1;
#X connect 44 0 8 1;
#X connect 45 0 27 0;
#X connect 45 0 32 0;
#X connect 46 0 0 3;
#X connect 47 0 48 0;
#X connect 47 0 48 1;
#X connect 48 0 49 0;
#X connect 49 0 33 0;
#X connect 50 0 33 0;
#X connect 51 0 50 1;
