#N canvas 810 52 884 878 10;
#X obj 115 20 inlet~;
#X obj 126 445 outlet~;
#X obj 691 32 block~ 1;
#X obj 189 129 *~;
#X obj 168 21 inlet~;
#X obj 269 25 inlet~;
#X obj 320 426 cos~;
#X obj 319 331 clip~ -1 1;
#X obj 324 360 *~ 0.25;
#X obj 318 307 hip~ 2;
#X obj 321 390 +~ 0.75;
#X obj 312 271 *~ 0.9;
#X obj 158 73 vd~ ahliner-\$0;
#X obj 322 482 delwrite~ ahliner-\$0 50;
#X obj 97 309 +~;
#X obj 223 195 rpole~;
#X obj 390 166 / 100;
#X obj 223 170 rzero_rev~;
#X obj 397 25 inlet;
#X connect 0 0 14 1;
#X connect 3 0 17 0;
#X connect 4 0 12 0;
#X connect 5 0 3 1;
#X connect 6 0 13 0;
#X connect 7 0 8 0;
#X connect 8 0 10 0;
#X connect 9 0 7 0;
#X connect 10 0 6 0;
#X connect 11 0 9 0;
#X connect 12 0 3 0;
#X connect 12 0 1 0;
#X connect 14 0 11 0;
#X connect 15 0 14 0;
#X connect 16 0 17 1;
#X connect 16 0 15 1;
#X connect 17 0 15 0;
#X connect 18 0 16 0;
