#N canvas 669 213 668 743 10;
#X obj 191 63 inlet;
#X obj 191 85 unpack;
#N canvas 203 129 450 300 store 0;
#N canvas 0 50 450 250 (subpatch) 0;
#X array \$0-finebyme 128 float 2;
#X coords 0 1 128 -1 200 140 1;
#X restore 100 20 graph;
#X restore 312 59 pd store;
#X obj 224 125 sel 0;
#X obj 251 165 bang;
#X msg 251 187 1;
#X msg 224 219 0;
#X obj 82 299 tabwrite \$0-finebyme;
#X obj 209 248 f;
#X obj 160 142 t b b f;
#X msg 231 412 128;
#X obj 231 433 until;
#X msg 110 429 128;
#X obj 110 450 until;
#X msg 191 395 0;
#X obj 180 358 t b b b;
#X obj 110 472 f;
#X obj 144 475 + 1;
#X obj 232 456 f;
#X obj 265 458 + 1;
#X obj 234 509 -;
#X msg 234 487 127 \$1;
#X obj 235 556 tabread \$0-finebyme;
#X obj 235 598 sel 1;
#X obj 111 553 tabread \$0-finebyme;
#X obj 111 595 sel 1;
#X obj 235 631 t b b;
#X obj 235 663 f;
#X obj 234 532 t f f;
#X obj 111 530 t f f;
#X obj 111 625 t b b;
#X obj 111 657 f;
#X obj 111 710 outlet;
#X obj 234 714 outlet;
#X obj 235 577 > 0;
#X obj 110 574 > 0;
#X connect 0 0 1 0;
#X connect 1 0 9 0;
#X connect 1 1 3 0;
#X connect 3 0 6 0;
#X connect 3 1 4 0;
#X connect 4 0 5 0;
#X connect 5 0 8 1;
#X connect 6 0 8 1;
#X connect 8 0 7 0;
#X connect 9 0 15 0;
#X connect 9 1 8 0;
#X connect 9 2 7 1;
#X connect 10 0 11 0;
#X connect 11 0 18 0;
#X connect 12 0 13 0;
#X connect 13 0 16 0;
#X connect 14 0 16 1;
#X connect 14 0 18 1;
#X connect 15 0 12 0;
#X connect 15 1 10 0;
#X connect 15 2 14 0;
#X connect 16 0 17 0;
#X connect 16 0 29 0;
#X connect 17 0 16 1;
#X connect 18 0 19 0;
#X connect 18 0 21 0;
#X connect 19 0 18 1;
#X connect 20 0 28 0;
#X connect 21 0 20 0;
#X connect 22 0 34 0;
#X connect 23 0 26 0;
#X connect 24 0 35 0;
#X connect 25 0 30 0;
#X connect 26 0 27 0;
#X connect 26 1 11 1;
#X connect 27 0 33 0;
#X connect 28 0 22 0;
#X connect 28 1 27 1;
#X connect 29 0 24 0;
#X connect 29 1 31 1;
#X connect 30 0 31 0;
#X connect 30 1 13 1;
#X connect 31 0 32 0;
#X connect 34 0 23 0;
#X connect 35 0 25 0;
